<!DOCTYPE svg PUBLIC "-//W3C//DTD SVG 20010904//EN" "http://www.w3.org/TR/2001/REC-SVG-20010904/DTD/svg10.dtd">
<svg version="1.0" xmlns="http://www.w3.org/2000/svg" width="1518px" height="1000px" viewBox="0 0 15180 10000" preserveAspectRatio="xMidYMid meet">
<g id="layer1" fill="#e7e7e7" stroke="none">
 <path d="M8180 9600 c0 -7 -167 -10 -480 -10 -414 0 -480 -2 -480 -15 0 -14 58 -320 85 -445 26 -123 35 -176 85 -475 157 -936 169 -1200 90 -2086 -34 -395 -121 -710 -288 -1044 -85 -173 -99 -195 -343 -545 -169 -244 -268 -460 -381 -830 l-23 -75 -3 309 -2 309 47 51 c51 54 120 132 140 158 11 12 9 19 -11 37 l-24 22 -48 -52 c-27 -28 -53 -57 -59 -63 -5 -6 -34 -37 -62 -68 l-53 -57 0 -425 c0 -369 2 -426 15 -426 10 0 13 -8 9 -27 -11 -59 -21 -243 -19 -341 l3 -102 -69 -73 -69 -72 3 -170 2 -170 33 -3 32 -3 0 158 0 159 33 32 c37 36 47 33 47 -13 0 -34 33 -261 48 -330 8 -38 6 -43 -37 -96 -25 -31 -76 -90 -113 -131 l-68 -75 0 -307 0 -306 35 0 35 0 0 291 0 291 87 101 c68 79 89 97 91 82 5 -31 50 -208 57 -227 5 -13 2 -15 -14 -11 -21 5 -21 4 -21 -253 l0 -259 -90 -92 c-50 -51 -90 -97 -90 -103 0 -35 36 -13 124 77 l96 98 1 260 c0 143 3 253 6 245 3 -8 23 -64 45 -125 23 -60 44 -119 48 -130 13 -34 11 -40 -12 -40 -23 0 -23 -3 -28 -141 l-5 -141 -57 -63 c-32 -35 -58 -66 -58 -70 0 -4 16 -20 36 -35 30 -23 38 -25 48 -14 7 8 41 44 75 81 l61 67 0 113 1 113 47 -90 c70 -132 124 -216 224 -350 l38 -50 -178 -5 -177 -5 0 -45 0 -45 160 -2 c88 -1 168 -2 177 -3 16 0 18 -17 20 -182 l3 -183 238 -2 c212 -2 241 -4 261 -20 13 -10 46 -36 74 -57 28 -22 50 -41 48 -43 -2 -2 -277 -4 -612 -4 l-609 0 -66 71 c-36 38 -71 70 -77 70 -17 0 -52 -51 -44 -65 4 -7 41 -49 83 -94 l76 -81 659 0 659 0 139 -74 c227 -121 438 -188 881 -276 94 -19 330 -49 470 -61 221 -18 752 -15 920 5 232 29 535 97 725 164 610 216 1115 620 1340 1071 89 178 173 405 265 716 15 50 53 158 85 240 93 242 114 328 114 470 0 104 -3 130 -26 195 -103 292 -101 283 -65 383 13 35 38 86 57 113 18 27 117 173 218 324 102 151 199 293 217 315 68 85 143 205 159 253 23 69 22 170 -2 224 -40 90 -190 196 -336 238 -78 22 -114 45 -122 77 -4 16 5 55 27 111 59 152 44 241 -62 350 l-50 53 22 45 c28 59 23 144 -14 206 -13 24 -45 79 -71 123 -55 94 -56 116 -20 240 43 147 32 344 -28 472 -34 74 -116 175 -180 222 -152 112 -330 150 -788 170 -371 16 -543 68 -596 179 -33 69 -8 524 86 1607 17 193 33 387 37 431 l6 82 -47 4 c-26 2 -49 1 -51 -2 -4 -7 -18 -138 -40 -385 -8 -93 -20 -215 -25 -270 -6 -55 -17 -181 -25 -280 -13 -168 -18 -231 -30 -425 -3 -41 -7 -97 -10 -125 -9 -97 -20 -381 -20 -505 0 -150 15 -199 78 -257 57 -53 132 -88 252 -118 100 -26 182 -33 570 -55 241 -13 338 -32 456 -89 123 -60 208 -156 251 -283 32 -95 31 -257 -2 -358 -15 -48 -24 -99 -25 -140 0 -58 5 -73 43 -143 24 -43 56 -99 73 -124 50 -81 38 -139 -40 -193 l-33 -23 90 -83 c132 -123 144 -159 92 -289 -51 -128 -37 -220 41 -275 16 -12 70 -35 121 -51 135 -44 240 -114 277 -186 33 -65 -2 -166 -105 -303 -54 -70 -141 -197 -415 -605 -134 -198 -161 -262 -160 -371 1 -74 9 -103 76 -279 55 -145 44 -315 -37 -525 -42 -108 -139 -396 -203 -600 -98 -314 -213 -550 -348 -715 -262 -319 -613 -566 -1032 -725 -252 -96 -509 -157 -820 -195 -162 -20 -652 -19 -865 1 -276 26 -609 82 -823 138 -185 49 -510 180 -530 214 -3 4 31 35 75 67 283 208 611 562 770 829 211 355 342 743 402 1196 40 304 46 510 21 714 -25 198 -50 306 -110 476 -13 36 -29 83 -35 105 -24 77 -92 241 -144 345 -53 107 -128 226 -255 405 -204 287 -320 515 -432 849 -50 146 -86 347 -113 626 -8 85 -21 209 -28 275 -8 76 -13 262 -13 505 0 419 -4 368 76 925 45 312 56 380 118 710 12 61 28 148 37 195 8 47 28 147 45 223 16 76 29 144 29 151 0 8 -20 19 -44 25 -55 13 -56 13 -56 1z m-887 -8284 l72 -66 -142 0 -143 0 0 143 0 142 70 -77 c39 -42 103 -106 143 -142z"/>
 <path d="M6850 7563 l-1 -1938 -52 -43 c-29 -24 -88 -74 -132 -112 l-80 -68 -5 -67 c-5 -67 1 -82 30 -79 8 1 21 2 28 3 8 1 12 19 12 56 0 36 5 57 14 62 8 4 68 55 135 113 l121 105 0 1953 0 1952 -35 0 -35 0 0 -1937z"/>
 <path d="M4432 9074 c-57 -40 -62 -115 -11 -159 l29 -24 0 -706 0 -707 80 -77 80 -78 0 -96 c0 -93 -1 -96 -30 -125 -41 -41 -41 -89 -1 -134 24 -27 36 -33 71 -33 35 0 47 6 71 33 40 45 40 93 -1 133 -29 30 -30 33 -31 136 l-1 106 -84 86 -84 86 0 686 0 687 23 15 c37 24 52 70 39 115 -19 63 -98 92 -150 56z m77 -68 c16 -20 3 -46 -24 -46 -25 0 -39 32 -22 49 15 15 32 14 46 -3z m165 -1959 c16 -25 -16 -56 -38 -37 -19 15 -20 32 -4 48 15 15 28 11 42 -11z"/>
 <path d="M5145 8956 c-35 -15 -65 -55 -65 -87 0 -32 30 -88 51 -94 18 -6 19 -25 19 -604 l0 -597 30 -29 c25 -24 30 -36 30 -77 0 -40 5 -53 26 -73 56 -52 153 -21 167 53 12 62 -49 127 -113 120 -17 -1 -37 5 -49 16 -21 19 -21 24 -21 598 l0 580 30 30 c54 54 35 141 -37 169 -30 11 -31 11 -68 -5z m65 -92 c0 -19 -5 -24 -25 -24 -32 0 -45 28 -21 46 24 17 46 7 46 -22z m119 -1378 c17 -20 3 -46 -25 -46 -18 0 -24 5 -24 23 0 38 26 50 49 23z"/>
 <path d="M4673 8716 c-96 -44 -97 -202 -2 -252 24 -12 47 -15 85 -11 49 5 53 4 88 -32 l36 -37 0 -204 0 -205 -30 -17 c-66 -38 -87 -119 -49 -188 30 -53 73 -74 138 -68 112 11 160 123 96 221 -10 16 -26 32 -36 38 -18 9 -19 26 -19 239 l0 229 -54 51 c-51 49 -53 52 -49 94 13 109 -101 188 -204 142z m101 -108 c24 -40 -44 -80 -71 -42 -17 23 -16 29 3 49 20 20 53 16 68 -7z m180 -744 c19 -19 20 -36 4 -52 -26 -26 -78 -7 -78 28 0 38 46 53 74 24z"/>
 <path d="M5327 8652 l-57 -58 0 -442 0 -442 35 0 35 0 0 428 0 428 45 44 c25 24 45 48 45 53 0 7 -38 47 -44 47 -1 0 -27 -26 -59 -58z"/>
 <path d="M5930 8070 l0 -452 -47 -60 -48 -61 -3 -174 c-5 -209 -2 -223 38 -223 l30 0 1 173 c0 94 2 180 4 189 2 10 22 39 44 65 23 25 44 56 47 67 2 12 3 224 2 471 l-3 450 -32 3 -33 3 0 -451z"/>
 <path d="M7154 8439 l-54 -52 0 -442 c0 -243 2 -444 5 -447 3 -2 18 -3 35 0 l30 4 0 429 c0 396 1 429 18 441 9 8 30 28 46 46 29 31 29 32 11 52 -10 11 -22 20 -27 20 -5 0 -34 -23 -64 -51z"/>
 <path d="M5537 8053 l3 -317 90 -91 c69 -70 90 -97 90 -118 0 -24 4 -27 35 -27 36 0 38 3 35 55 -1 23 -22 51 -96 125 l-94 95 0 298 0 297 -32 0 -33 0 2 -317z"/>
 <path d="M6226 8324 c-23 -23 -20 -34 19 -74 l36 -37 -1 -355 0 -356 35 -4 35 -4 0 376 0 375 -46 48 c-50 52 -55 54 -78 31z"/>
 <path d="M4614 8256 c-2 -6 -3 -175 -2 -376 l3 -365 198 -3 197 -2 0 -205 0 -205 35 0 35 0 0 240 0 240 -196 2 -195 3 1 336 0 337 -36 4 c-20 2 -38 0 -40 -6z"/>
 <path d="M6560 7648 l0 -483 -167 -167 -168 -168 26 -25 25 -25 177 177 177 177 0 498 0 498 -35 0 -35 0 0 -482z"/>
 <path d="M6017 7753 c-3 -5 -4 -54 -3 -109 l1 -102 49 -53 c125 -136 270 -279 277 -272 27 27 10 53 -126 196 -77 81 -141 153 -141 160 -1 6 -2 51 -3 100 -1 85 -1 87 -25 87 -14 0 -27 -3 -29 -7z"/>
 <path d="M5457 7673 c-4 -3 -7 -51 -7 -107 0 -98 -1 -101 -30 -131 -33 -34 -32 -60 2 -71 15 -4 30 4 59 32 l39 38 0 123 0 123 -28 0 c-16 0 -32 -3 -35 -7z"/>
 <path d="M7237 7552 c-23 -26 -22 -31 21 -75 l37 -38 2 -357 1 -357 31 -3 c20 -2 31 1 31 10 1 7 1 177 0 378 l0 364 -47 48 c-26 26 -50 48 -54 48 -3 0 -13 -8 -22 -18z"/>
 <path d="M4834 7426 c-3 -7 -4 -35 -2 -62 l3 -49 58 -3 57 -3 0 66 0 65 -55 0 c-38 0 -57 -4 -61 -14z"/>
 <path d="M7067 7413 c-2 -5 -3 -30 -3 -58 l1 -50 60 0 60 0 3 58 3 57 -60 0 c-33 0 -62 -3 -64 -7z"/>
 <path d="M5165 7277 c-3 -7 -4 -91 -3 -187 l3 -175 185 0 185 0 0 185 0 185 -183 3 c-143 2 -184 0 -187 -11z"/>
 <path d="M6097 7243 c-4 -3 -7 -204 -7 -445 l0 -438 35 0 35 0 0 445 0 445 -28 0 c-16 0 -32 -3 -35 -7z"/>
 <path d="M4832 7183 l3 -58 58 0 c31 0 57 3 57 8 0 4 0 30 0 57 l0 50 -60 0 -61 0 3 -57z"/>
 <path d="M7067 7223 c-2 -4 -5 -31 -6 -60 -3 -58 0 -60 81 -55 l49 4 -3 56 -3 57 -57 3 c-31 2 -58 -1 -61 -5z"/>
 <path d="M4207 7195 c-20 -14 -37 -30 -37 -35 0 -6 -154 -10 -411 -10 l-412 0 -163 -162 -164 -162 0 -279 0 -280 -37 -32 c-33 -28 -37 -37 -41 -91 -3 -50 0 -64 20 -94 63 -93 219 -66 247 44 16 66 -17 145 -71 162 -17 5 -18 22 -18 267 l0 262 133 133 134 132 380 0 381 0 21 -35 c53 -90 175 -99 235 -18 27 36 33 111 12 152 -37 72 -138 94 -209 46z m107 -78 c38 -27 -2 -95 -41 -71 -24 15 -28 48 -8 68 20 19 26 20 49 3z m-1207 -959 c12 -15 9 -46 -6 -61 -5 -5 -21 -7 -35 -3 -20 5 -26 13 -26 35 0 15 3 31 7 34 11 12 50 8 60 -5z"/>
 <path d="M7107 7023 c-4 -3 -7 -173 -7 -378 l0 -371 42 -105 c37 -90 43 -116 46 -197 l4 -93 31 3 32 3 3 85 c3 88 -2 108 -70 269 -16 40 -18 77 -18 417 l0 374 -28 0 c-16 0 -32 -3 -35 -7z"/>
 <path d="M3475 6860 c-18 -20 -14 -24 232 -270 l251 -250 116 0 116 0 0 25 0 25 -101 0 -101 0 -163 164 -163 165 60 60 c51 51 59 63 48 76 -20 24 -32 19 -92 -41 l-57 -57 -60 62 c-32 33 -61 61 -64 61 -2 0 -12 -9 -22 -20z"/>
 <path d="M6430 6725 l0 -125 60 -43 c32 -23 91 -64 131 -92 39 -27 80 -57 91 -65 18 -14 19 -32 21 -265 l2 -250 35 0 35 0 3 267 2 267 -84 57 c-47 32 -82 62 -80 66 3 5 2 7 -3 6 -5 -2 -39 17 -76 42 l-66 45 -1 108 0 107 -35 0 -35 0 0 -125z"/>
 <path d="M4804 6806 c-3 -8 -4 -27 -2 -43 3 -25 7 -28 38 -28 34 0 35 1 35 40 0 38 -2 40 -33 43 -21 2 -34 -2 -38 -12z"/>
 <path d="M4970 6785 c0 -48 1 -50 35 -50 28 0 30 3 33 43 l3 42 -35 0 c-34 0 -36 -2 -36 -35z"/>
 <path d="M5127 6813 c-9 -9 -9 -71 1 -76 4 -3 22 -2 40 0 30 5 32 8 32 44 0 38 -1 39 -33 39 -19 0 -37 -3 -40 -7z"/>
 <path d="M5290 6777 c0 -42 1 -43 34 -44 37 -1 45 8 40 47 -1 14 -3 28 -3 33 -1 4 -17 7 -36 7 -35 0 -35 -1 -35 -43z"/>
 <path d="M3922 6743 c-20 -4 -23 -10 -20 -41 3 -36 4 -37 46 -40 l42 -3 0 40 c0 23 -4 41 -9 41 -5 0 -15 2 -23 4 -7 2 -23 1 -36 -1z"/>
 <path d="M4085 6742 c-3 -3 -5 -23 -5 -44 0 -38 0 -38 40 -38 l40 0 0 40 c0 25 -5 40 -12 41 -7 1 -23 3 -35 4 -12 1 -25 0 -28 -3z"/>
 <path d="M4255 6740 c-2 -3 -5 -21 -7 -40 -3 -35 -3 -35 40 -38 l42 -3 0 44 c0 43 0 43 -36 43 -20 -1 -37 -3 -39 -6z"/>
 <path d="M5813 6743 l-33 -4 0 -183 0 -183 -26 -24 c-41 -39 -48 -58 -28 -80 26 -28 36 -24 82 32 l42 52 0 198 c0 110 -1 198 -2 197 -2 0 -18 -3 -35 -5z"/>
 <path d="M3372 6668 c3 -21 9 -23 70 -26 l67 -3 248 -254 247 -255 234 0 233 0 -3 23 c-3 22 -4 22 -220 27 l-217 5 -247 253 -246 252 -85 0 c-82 0 -84 -1 -81 -22z"/>
 <path d="M4400 6574 l0 -95 -45 -43 c-50 -48 -51 -51 -31 -72 21 -21 27 -18 79 34 l47 48 0 112 0 112 -25 0 c-25 0 -25 0 -25 -96z"/>
 <path d="M4678 6628 c-14 -37 -8 -38 441 -38 l437 0 38 -41 38 -42 21 22 21 21 -44 45 -44 45 -452 0 c-352 0 -453 -3 -456 -12z"/>
 <path d="M6227 6553 c-4 -3 -7 -175 -7 -381 l0 -375 46 -115 c42 -106 45 -119 42 -191 l-3 -76 35 0 35 0 -1 95 c0 87 -4 104 -42 202 l-42 108 0 370 0 370 -28 0 c-16 0 -32 -3 -35 -7z"/>
 <path d="M5228 6428 c-20 -18 -59 -54 -88 -80 l-51 -48 -225 0 -225 0 3 -27 3 -28 233 -3 232 -2 85 81 86 82 109 1 c61 0 111 4 111 8 7 44 10 43 -117 46 l-121 3 -35 -33z"/>
 <path d="M6608 5982 l3 -388 -106 -104 -105 -104 0 -183 c0 -101 3 -184 8 -184 4 -1 19 -2 35 -3 l27 -2 0 171 0 172 105 102 105 102 0 405 0 404 -37 0 -38 0 3 -388z"/>
 <path d="M5205 6289 c-33 -31 -73 -68 -89 -82 l-29 -27 -221 -2 c-221 -3 -221 -3 -224 -25 l-3 -23 240 0 241 0 78 75 79 74 114 3 114 3 0 25 c0 25 0 25 -120 30 l-120 5 -60 -56z"/>
 <path d="M3280 6216 l0 -126 70 0 70 0 0 35 c0 33 -2 35 -35 35 l-34 0 -3 88 -3 87 -32 3 -33 3 0 -125z"/>
 <path d="M3504 6327 c-2 -7 -3 -62 -2 -123 l3 -109 70 0 70 0 3 33 c3 31 2 32 -37 32 l-41 0 0 90 0 90 -30 0 c-17 0 -33 -6 -36 -13z"/>
 <path d="M3735 6328 c-3 -8 -4 -63 -3 -124 l3 -109 59 -3 c76 -4 84 -1 78 37 -4 28 -8 31 -38 31 l-33 0 -3 88 c-3 87 -3 87 -31 90 -16 2 -29 -2 -32 -10z"/>
 <path d="M5811 6223 l-61 -67 0 -417 c0 -442 -1 -430 47 -421 l23 4 0 404 0 403 56 61 c55 59 56 61 39 80 -10 11 -24 20 -30 20 -7 0 -40 -30 -74 -67z"/>
 <path d="M5176 6145 l-90 -85 -223 0 -223 0 0 -25 0 -25 238 0 237 0 80 75 c44 41 89 75 100 76 11 0 52 2 90 3 119 4 115 3 115 36 l0 30 -117 0 -118 -1 -89 -84z"/>
 <path d="M3950 6099 c-53 -11 -90 -59 -90 -115 0 -39 5 -51 34 -80 27 -27 42 -34 73 -34 45 0 103 32 110 61 5 19 12 21 103 17 93 -3 100 -5 137 -34 23 -19 46 -51 58 -80 19 -46 20 -78 25 -549 l5 -500 45 -2 c228 -13 492 -98 637 -205 l53 -39 36 28 37 27 66 -69 c165 -174 278 -416 317 -678 21 -141 15 -412 -10 -502 -23 -80 -107 -254 -153 -318 -113 -155 -252 -274 -435 -376 -43 -23 -83 -39 -89 -36 -6 4 -19 27 -29 51 -21 49 -19 48 -69 34 -93 -25 -175 -40 -279 -51 -246 -27 -521 40 -674 164 -10 8 -18 27 -18 43 0 60 -64 124 -123 124 -31 0 -88 -38 -105 -70 -21 -40 -8 -101 28 -132 24 -22 40 -28 76 -28 25 0 54 4 64 10 14 7 27 2 61 -24 109 -83 258 -134 458 -157 140 -16 291 -2 498 46 18 4 25 -4 47 -50 14 -30 31 -55 38 -55 23 0 178 82 272 144 116 75 285 244 358 356 66 102 121 228 148 342 25 106 27 350 4 506 -17 116 -75 304 -123 401 -53 106 -137 227 -218 311 -100 105 -104 108 -148 74 l-35 -27 -38 26 c-88 59 -140 83 -302 137 -88 29 -240 60 -297 60 l-33 0 0 61 0 60 83 -6 c259 -21 534 -109 701 -224 113 -79 250 -225 320 -341 97 -165 149 -321 182 -556 32 -228 -4 -522 -88 -714 -121 -276 -273 -441 -538 -583 -148 -80 -419 -158 -602 -174 l-68 -6 0 -304 0 -305 -140 -153 -140 -153 -45 6 c-160 18 -218 -202 -72 -268 69 -31 137 -9 178 57 17 27 20 45 16 86 l-5 52 149 162 149 161 0 285 0 285 58 7 c216 26 466 112 657 227 l80 48 213 0 c116 0 212 -4 212 -9 0 -19 50 -60 85 -70 73 -20 145 34 145 109 0 74 -60 127 -134 117 -32 -4 -49 -14 -76 -46 l-36 -41 -155 0 c-86 0 -158 2 -161 5 -3 3 27 38 66 78 154 157 256 341 311 557 116 460 33 943 -221 1287 -99 134 -219 239 -376 330 l-78 45 0 66 0 67 139 140 139 140 128 5 129 5 3 33 3 32 -144 0 -145 0 -161 -162 -161 -163 0 -66 0 -67 -62 20 c-95 30 -203 57 -296 74 -71 12 -115 17 -224 23 -17 1 -18 24 -18 339 -1 374 -8 436 -57 506 -56 79 -119 106 -250 106 -62 0 -83 3 -83 13 0 18 -39 53 -70 65 -14 5 -41 5 -60 1z m60 -83 c31 -38 -9 -89 -54 -68 -45 20 -30 82 20 82 12 0 27 -7 34 -14z m-255 -3130 c23 -34 5 -66 -35 -66 -44 0 -58 39 -27 78 15 20 45 14 62 -12z m2156 -256 c27 -15 24 -56 -5 -75 -20 -14 -28 -14 -45 -3 -35 22 -23 88 17 88 7 0 22 -5 33 -10z m-1761 -1285 c7 -9 10 -25 6 -40 -6 -22 -11 -26 -39 -23 -25 2 -33 8 -35 26 -7 44 41 70 68 37z"/>
 <path d="M4644 5906 c-3 -8 -4 -23 -2 -33 3 -17 19 -18 233 -18 l230 0 0 30 0 30 -228 3 c-192 2 -228 0 -233 -12z"/>
 <path d="M3049 5876 c-2 -2 -3 -63 -1 -135 l3 -131 25 0 c24 0 24 0 24 105 l0 105 44 0 c39 0 44 3 48 25 3 13 3 27 0 30 -6 6 -137 7 -143 1z"/>
 <path d="M3240 5745 l0 -135 30 0 30 0 0 104 0 105 43 3 c37 3 42 6 42 28 0 24 -3 25 -72 28 l-73 3 0 -136z"/>
 <path d="M3500 5863 c-56 -21 -83 -89 -55 -143 18 -36 75 -65 107 -54 16 5 31 -5 69 -46 l49 -53 0 -156 0 -156 -74 -76 -74 -76 -1 -229 c-1 -209 -3 -233 -21 -269 -24 -47 -25 -57 -5 -95 43 -82 171 -68 189 21 7 35 -16 96 -39 105 -13 5 -15 37 -15 223 l0 217 70 69 70 69 0 201 0 201 -70 69 c-47 47 -70 77 -70 93 0 36 -19 62 -55 78 -36 15 -50 16 -75 7z m58 -95 c-3 -25 -34 -36 -50 -20 -17 17 -1 42 27 42 22 0 26 -4 23 -22z m51 -1197 c14 -24 -8 -55 -32 -45 -18 6 -21 21 -11 48 8 22 31 20 43 -3z"/>
 <path d="M5353 5792 c-12 -15 -46 -53 -76 -85 l-53 -58 -327 3 c-339 3 -346 2 -331 -37 5 -13 53 -15 349 -15 l342 0 72 80 72 79 137 3 137 3 3 28 3 27 -153 0 -153 0 -22 -28z"/>
 <path d="M5305 5591 l-70 -79 -335 -4 -335 -3 0 -25 0 -25 342 -3 343 -2 37 39 c21 21 57 59 80 85 l42 46 135 0 136 0 0 25 0 25 -152 0 -153 -1 -70 -78z"/>
 <path d="M4180 5435 l-95 -95 -84 0 -85 0 -93 -96 c-60 -62 -92 -102 -89 -111 3 -8 6 -17 6 -19 0 -2 7 -4 16 -4 8 0 54 38 102 85 l86 85 81 0 81 0 105 106 c57 58 106 107 108 109 6 7 -20 35 -33 35 -6 0 -54 -43 -106 -95z"/>
 <path d="M5305 5448 l-77 -83 -311 -2 c-172 -2 -322 -3 -333 -3 -16 0 -21 -6 -20 -22 l1 -23 345 -3 346 -2 72 80 73 79 137 3 137 3 0 25 0 25 -146 3 -147 3 -77 -83z"/>
 <path d="M3287 5462 l-248 -2 3 -23 3 -22 268 -3 268 -2 -3 27 c-2 18 -9 27 -23 27 -11 1 -132 0 -268 -2z"/>
 <path d="M4179 5325 l-93 -95 -84 0 -83 0 -95 -96 c-52 -53 -93 -101 -91 -107 2 -6 11 -15 20 -21 13 -8 32 6 102 77 l87 87 82 0 81 0 109 109 c94 95 108 112 97 125 -8 9 -19 16 -26 16 -6 0 -54 -43 -106 -95z"/>
 <path d="M3048 5359 c-5 -4 -8 -15 -6 -25 3 -18 18 -19 271 -22 l268 -2 -3 25 -3 26 -258 2 c-143 1 -263 -1 -269 -4z"/>
 <path d="M4180 5215 l-95 -95 -81 0 -82 0 -73 -74 c-125 -125 -124 -123 -109 -141 7 -8 17 -15 22 -15 5 0 48 38 96 85 l87 85 80 0 80 0 108 108 c85 83 107 110 99 122 -19 30 -39 19 -132 -75z"/>
 <path d="M2774 5286 c-42 -18 -74 -62 -74 -100 0 -31 -1 -31 -134 -80 -79 -28 -149 -61 -170 -78 -57 -47 -88 -109 -94 -186 -7 -105 5 -137 157 -405 20 -36 20 -39 4 -63 -20 -32 -22 -100 -3 -139 33 -66 124 -94 191 -60 81 42 93 173 23 237 -11 9 -39 22 -64 28 -49 12 -52 16 -178 250 -35 64 -41 172 -13 217 28 44 52 58 187 108 l118 44 32 -19 c61 -38 164 -17 194 41 26 47 29 79 13 125 -27 79 -109 114 -189 80z m94 -106 c22 -35 -13 -77 -49 -59 -23 12 -31 37 -19 60 14 25 52 24 68 -1z m-247 -861 c14 -27 -6 -59 -36 -59 -14 0 -29 8 -35 19 -13 26 -13 27 11 50 24 22 44 18 60 -10z"/>
 <path d="M3070 5255 l0 -25 140 0 140 0 0 -120 0 -120 30 0 30 0 0 145 0 145 -170 0 -170 0 0 -25z"/>
 <path d="M4180 5105 l-95 -95 -80 0 -80 0 -98 -96 c-76 -74 -96 -100 -92 -115 11 -35 39 -20 125 66 l84 85 81 0 80 0 109 109 c94 95 108 112 97 125 -8 9 -19 16 -25 16 -6 0 -54 -43 -106 -95z"/>
 <path d="M6117 5176 c-16 -24 -15 -25 43 -80 l60 -55 0 -543 0 -543 -90 -107 -90 -107 0 -550 0 -551 35 0 35 0 0 538 0 537 90 108 90 107 0 573 0 573 -69 62 c-38 34 -74 62 -79 62 -5 0 -17 -11 -25 -24z"/>
 <path d="M5317 5142 l-38 -3 3 -47 3 -47 313 -3 313 -2 -3 51 -3 51 -275 1 c-151 1 -292 1 -313 -1z"/>
 <path d="M4180 4995 l-95 -95 -80 0 -81 0 -97 -97 c-53 -53 -97 -102 -97 -109 0 -7 8 -18 18 -23 15 -8 33 6 107 80 l88 89 82 0 81 0 105 106 c57 58 106 107 108 109 6 7 -20 35 -33 35 -6 0 -54 -43 -106 -95z"/>
 <path d="M4181 4886 l-94 -94 -86 -4 -86 -4 -90 -92 c-49 -51 -91 -99 -93 -107 -2 -7 7 -16 18 -20 18 -6 37 8 108 79 l86 86 81 0 81 0 105 106 c57 58 106 107 108 109 6 7 -20 35 -33 35 -6 0 -54 -42 -105 -94z"/>
 <path d="M5735 4948 c-3 -13 -4 -77 -3 -143 l3 -120 35 0 35 0 0 140 0 140 -32 3 c-27 3 -33 -1 -38 -20z"/>
 <path d="M5850 4835 c0 -74 0 -138 0 -142 0 -5 15 -8 33 -8 l32 0 3 120 c4 152 0 165 -38 165 l-30 0 0 -135z"/>
 <path d="M5960 4825 l0 -145 30 0 30 0 0 145 0 145 -30 0 -30 0 0 -145z"/>
 <path d="M6064 4957 c-2 -7 -3 -71 -2 -143 l3 -129 33 0 c17 0 32 3 32 8 0 4 0 68 0 142 l0 135 -30 0 c-17 0 -33 -6 -36 -13z"/>
 <path d="M2810 4875 c-3 -198 -1 -212 33 -199 11 4 17 18 17 40 0 37 10 43 30 19 9 -10 32 -15 77 -15 61 0 64 1 61 23 -2 18 -10 22 -48 25 -60 4 -120 59 -120 109 0 29 -3 33 -25 33 -22 0 -25 -4 -25 -35z"/>
 <path d="M4350 4738 c-52 -4 -107 -11 -122 -17 -15 -5 -42 -7 -61 -4 -50 8 -77 -10 -77 -51 0 -19 7 -39 15 -46 22 -18 19 -27 -17 -39 -52 -18 -208 -117 -263 -166 l-50 -45 -461 0 c-253 0 -463 -3 -466 -6 -3 -3 -4 -14 -1 -24 5 -19 22 -20 477 -22 l471 -3 50 44 c71 63 213 154 227 145 6 -4 8 -3 5 3 -7 10 146 65 221 79 33 7 39 18 22 44 -8 13 -16 13 -70 -1 -33 -9 -60 -13 -60 -10 3 41 121 71 273 71 313 -1 602 -143 793 -391 105 -135 172 -289 200 -459 54 -327 -76 -683 -328 -902 -86 -75 -108 -88 -142 -88 -29 0 -29 0 17 33 26 19 65 49 88 68 22 18 54 38 72 44 28 9 32 15 35 48 4 44 -16 66 -59 67 -34 0 -59 -29 -59 -67 0 -35 -25 -58 -139 -131 -121 -79 -338 -142 -484 -142 -141 1 -346 62 -475 143 -72 45 -223 178 -221 196 0 3 17 20 38 36 22 17 52 40 67 52 16 12 97 76 179 142 l150 119 30 -28 c17 -16 60 -43 98 -60 62 -29 74 -32 150 -28 145 6 249 75 309 205 29 61 30 70 26 156 -6 104 -22 144 -86 217 -78 89 -211 135 -320 110 -120 -26 -209 -95 -259 -200 -23 -46 -27 -69 -28 -140 0 -72 4 -94 27 -142 l26 -57 -66 -54 c-163 -132 -364 -287 -372 -287 -16 0 -85 124 -124 222 -20 52 -56 221 -56 270 0 4 44 9 98 10 l97 3 7 82 c9 110 35 200 59 206 41 11 36 82 -7 93 -38 10 -67 -21 -60 -64 2 -18 -2 -54 -10 -80 -8 -26 -17 -79 -21 -119 l-6 -72 -106 -3 -106 -3 3 -75 c7 -156 75 -356 159 -468 13 -18 23 -36 21 -41 -2 -5 -37 -36 -78 -70 -65 -53 -80 -61 -117 -61 -51 0 -83 -29 -83 -75 0 -61 75 -97 125 -60 12 10 21 32 25 62 5 45 9 50 82 106 l77 59 76 -74 c190 -184 421 -278 682 -278 147 0 353 50 439 106 26 18 27 18 17 -1 -14 -27 -7 -65 15 -81 34 -26 79 -14 96 26 6 15 46 55 88 89 258 207 398 500 398 828 0 150 -21 257 -76 396 -82 206 -261 413 -453 524 -183 106 -393 149 -641 131z m-190 -78 c0 -11 -7 -20 -15 -20 -8 0 -15 9 -15 20 0 11 7 20 15 20 8 0 15 -9 15 -20z m374 -830 c59 -28 86 -73 86 -141 0 -86 -52 -149 -138 -165 -84 -16 -182 74 -182 166 0 59 52 131 110 153 32 12 85 6 124 -13z m624 -783 c2 -12 -3 -17 -17 -17 -12 0 -21 6 -21 13 0 31 32 34 38 4z m-163 -257 c0 -8 -8 -16 -17 -18 -13 -2 -18 3 -18 18 0 15 5 20 18 18 9 -2 17 -10 17 -18z"/>
 <path d="M4473 4609 c-22 -22 -16 -68 10 -79 18 -7 14 -9 -23 -10 -57 -1 -201 -25 -260 -44 -65 -20 -97 -35 -167 -79 -34 -21 -78 -43 -98 -48 -64 -18 -69 -89 -6 -89 30 0 47 14 52 44 8 41 197 132 337 161 289 60 610 -70 791 -322 46 -63 96 -170 117 -248 29 -108 27 -334 -4 -435 -70 -225 -254 -426 -461 -504 -143 -54 -239 -68 -275 -41 -18 14 -17 15 25 15 25 0 80 9 123 20 308 81 527 318 574 623 8 51 7 57 -9 57 -14 0 -21 -16 -35 -77 -9 -43 -32 -113 -49 -155 -80 -189 -257 -342 -467 -403 -76 -22 -273 -22 -362 -1 -82 20 -205 82 -277 142 -46 37 -79 47 -79 24 0 -24 115 -108 205 -150 108 -51 155 -65 253 -76 58 -6 61 -8 42 -21 -22 -16 -27 -52 -8 -71 16 -16 53 -15 70 1 7 8 44 17 80 21 242 24 490 190 613 410 139 249 148 527 26 776 -23 45 -54 99 -69 120 -133 181 -338 309 -537 335 -27 4 -60 9 -73 12 l-23 5 21 15 c43 31 199 -1 340 -69 220 -106 375 -289 453 -533 19 -61 22 -92 22 -235 0 -132 -4 -177 -19 -224 -32 -103 -62 -161 -90 -174 -43 -19 -31 -92 14 -92 22 0 50 32 50 57 0 11 13 54 29 94 100 251 90 512 -30 750 -25 50 -109 171 -142 203 -153 153 -314 238 -522 276 -55 11 -111 22 -125 25 -15 4 -30 1 -37 -6z"/>
 <path d="M4395 4443 c-122 -15 -325 -90 -325 -119 0 -25 22 -26 68 -1 85 46 170 68 283 74 179 10 304 -26 455 -128 44 -30 144 -128 144 -141 0 -11 37 -10 44 1 14 21 -83 118 -186 187 -141 94 -339 146 -483 127z"/>
 <path d="M5976 4375 c-18 -13 -17 -15 8 -61 25 -44 26 -54 26 -194 l0 -147 -60 -78 -60 -78 0 -493 0 -494 35 0 35 0 0 481 0 480 27 37 c15 20 42 55 60 76 l33 40 -1 175 c-1 173 -1 177 -28 221 -30 49 -46 57 -75 35z"/>
 <path d="M4415 4271 c-57 -7 -66 -22 -40 -71 15 -29 19 -31 58 -25 76 11 237 -31 302 -80 19 -13 22 -12 49 21 26 33 27 37 12 53 -33 36 -149 83 -236 96 -83 12 -95 12 -145 6z"/>
 <path d="M3794 4249 c-18 -5 -39 -20 -48 -34 -16 -24 -22 -25 -105 -25 l-88 0 -75 -80 -75 -80 -276 0 -277 0 0 -30 0 -30 298 0 298 0 69 75 68 75 70 0 c67 0 72 -2 99 -32 25 -28 36 -33 74 -33 39 0 50 5 75 33 50 56 33 129 -37 158 -18 8 -35 14 -36 13 -2 0 -17 -5 -34 -10z m60 -82 c16 -25 -16 -56 -38 -37 -19 15 -20 32 -4 48 15 15 28 11 42 -11z"/>
 <path d="M4182 4204 c-134 -76 -240 -206 -285 -351 -24 -79 -29 -243 -9 -308 19 -60 65 -155 74 -155 5 0 23 10 41 22 18 13 33 24 35 25 2 0 -4 16 -14 34 -28 55 -54 160 -54 220 0 166 128 370 274 434 61 27 60 25 35 93 -11 30 -23 28 -97 -14z"/>
 <path d="M5113 4043 c-18 -7 -17 -16 15 -99 19 -53 32 -74 45 -74 23 0 22 17 -8 97 -28 75 -34 83 -52 76z"/>
 <path d="M4920 3978 c-19 -12 -37 -23 -39 -25 -2 -2 7 -27 21 -55 37 -76 50 -131 49 -217 -1 -94 -17 -151 -71 -244 -127 -218 -391 -297 -630 -190 -25 11 -56 30 -70 42 -74 65 -64 63 -105 23 l-37 -36 44 -38 c62 -53 145 -95 234 -118 272 -70 545 54 674 306 73 142 81 332 21 476 -41 97 -47 103 -91 76z"/>
 <path d="M6205 3740 c-78 -78 -79 -80 -60 -100 10 -11 23 -20 29 -20 15 0 156 142 156 156 0 10 -32 44 -41 44 -2 0 -40 -36 -84 -80z"/>
 <path d="M2964 3686 c-3 -8 -4 -23 -2 -33 3 -16 17 -18 158 -18 l155 0 0 30 0 30 -153 3 c-127 2 -153 0 -158 -12z"/>
 <path d="M6211 3582 l-81 -78 25 -24 c14 -13 28 -20 32 -16 5 4 32 29 62 54 29 26 61 59 72 73 18 26 18 26 -5 48 l-24 22 -81 -79z"/>
 <path d="M2942 3498 c-20 -20 -13 -31 56 -90 l66 -58 198 0 198 0 0 25 c0 29 14 27 -205 26 l-161 0 -29 27 c-50 46 -96 82 -104 82 -4 0 -12 -5 -19 -12z"/>
 <path d="M3110 3465 c0 -34 1 -35 40 -35 39 0 40 1 40 35 0 34 -1 35 -40 35 -39 0 -40 -1 -40 -35z"/>
 <path d="M3200 3465 c0 -33 2 -35 33 -35 18 0 38 5 45 12 9 9 12 9 12 0 0 -7 14 -12 35 -12 33 0 35 2 35 34 l0 35 -80 0 -80 0 0 -34z m90 5 c0 -5 -5 -10 -11 -10 -5 0 -7 5 -4 10 3 6 8 10 11 10 2 0 4 -4 4 -10z"/>
 <path d="M3370 3464 c0 -35 1 -35 38 -32 34 3 37 6 40 36 3 31 2 32 -37 32 -40 0 -41 -1 -41 -36z"/>
 <path d="M6211 3414 l-73 -76 23 -24 23 -25 78 78 c43 43 78 82 78 87 0 11 -31 35 -45 36 -5 0 -43 -34 -84 -76z"/>
 <path d="M2883 3350 c-26 -11 -50 -45 -63 -91 -15 -50 4 -102 49 -141 33 -28 39 -41 45 -88 10 -78 54 -292 77 -380 195 -729 577 -1310 1099 -1671 366 -254 855 -417 1335 -445 115 -7 121 -8 149 -36 53 -54 120 -63 177 -25 93 62 88 195 -10 243 -54 26 -128 15 -163 -25 -26 -29 -32 -31 -97 -31 -86 0 -326 32 -489 66 -198 41 -431 125 -612 222 -403 214 -732 552 -975 1001 -73 134 -179 372 -209 467 -8 27 -26 87 -41 134 -43 140 -73 258 -94 382 -27 151 -27 173 4 210 48 57 27 169 -37 204 -26 15 -112 17 -145 4z m93 -88 c22 -15 24 -42 3 -63 -18 -18 -23 -19 -42 -6 -28 18 -32 40 -12 61 18 17 34 20 51 8z m2728 -2638 c34 -34 8 -82 -39 -70 -43 11 -28 84 17 86 4 0 14 -7 22 -16z"/>
 <path d="M3766 2682 c-3 -5 -5 -100 -4 -211 l1 -201 -81 -83 -80 -83 1 -99 c2 -96 3 -100 25 -103 22 -3 22 -1 22 95 l0 98 80 80 80 80 -2 215 c-3 191 -5 215 -20 218 -9 2 -19 -1 -22 -6z"/>
 <path d="M3540 2481 l0 -191 23 -1 c12 0 32 -2 45 -3 12 -2 27 3 32 9 7 8 9 82 8 191 l-3 179 -52 3 -53 3 0 -190z"/>
 <path d="M3847 2654 c-4 -4 -7 -93 -7 -198 l0 -191 -80 -80 -80 -80 0 -116 c0 -63 3 -118 6 -122 3 -3 12 -3 20 0 11 4 14 30 14 112 l0 106 80 80 80 80 -2 204 c-3 193 -8 228 -31 205z"/>
 <path d="M3910 2438 l0 -183 -80 -80 -80 -80 0 -132 c0 -126 1 -133 20 -133 19 0 20 7 20 122 l0 123 80 80 79 80 2 190 c1 186 0 190 -20 193 -21 3 -21 0 -21 -180z"/>
 <path d="M3992 2578 c-8 -8 -12 -60 -12 -173 l0 -162 -77 -75 -78 -75 1 -147 c1 -81 4 -150 7 -153 4 -3 13 -3 22 0 12 5 15 29 15 144 l0 138 80 80 80 80 -2 174 c-3 172 -8 197 -36 169z"/>
 <path d="M4060 2397 l0 -154 -80 -77 -80 -78 0 -164 c0 -157 1 -164 20 -164 19 0 20 7 20 153 l0 152 80 80 80 80 0 162 c0 156 -1 163 -20 163 -19 0 -20 -7 -20 -153z"/>
 <path d="M4130 2373 l0 -137 -80 -82 -80 -82 0 -171 c0 -145 2 -173 15 -178 9 -3 18 -4 20 -1 2 2 5 78 5 169 l2 164 84 86 85 87 -2 141 -2 141 -23 0 -24 0 0 -137z"/>
 <path d="M4210 2359 l0 -123 -84 -86 -84 -86 -2 -180 c0 -143 2 -183 13 -192 8 -7 17 -9 20 -5 4 3 7 85 7 182 l0 175 85 87 86 87 -3 128 c-3 113 -5 129 -20 132 -16 3 -18 -8 -18 -119z"/>
 <path d="M5372 2008 c3 -422 4 -453 21 -456 16 -3 17 24 17 452 0 450 0 456 -20 456 -20 0 -20 -5 -18 -452z"/>
 <path d="M4287 2444 c-4 -4 -7 -55 -7 -113 l0 -106 -80 -80 -80 -80 2 -205 c3 -174 5 -205 18 -205 13 0 16 31 20 198 l5 198 78 77 78 78 -3 119 c-3 110 -10 139 -31 119z"/>
 <path d="M5246 2404 c-33 -19 -88 -50 -124 -67 -35 -17 -66 -36 -68 -42 -4 -10 245 -266 266 -273 6 -2 10 77 10 207 0 162 -3 211 -12 211 -7 0 -40 -16 -72 -36z"/>
 <path d="M6107 2414 c-4 -4 -7 -40 -7 -81 l0 -73 -179 0 -180 0 -27 36 c-24 31 -29 33 -42 20 -13 -13 -11 -19 17 -55 l33 -41 209 0 210 0 -3 97 c-3 89 -12 116 -31 97z"/>
 <path d="M4357 2403 c-4 -3 -7 -47 -7 -97 l0 -91 -80 -80 -80 -80 0 -217 c0 -211 1 -218 20 -218 11 0 20 6 20 13 1 6 0 99 0 206 l-1 195 83 83 83 83 3 80 c2 44 1 91 -2 105 -6 24 -25 33 -39 18z"/>
 <path d="M4946 2251 c-3 -5 77 -89 179 -186 101 -98 184 -181 183 -184 0 -3 0 -79 1 -168 1 -138 3 -163 16 -163 13 0 15 27 15 183 l0 184 -97 93 c-54 52 -135 129 -179 172 -77 73 -105 90 -118 69z"/>
 <path d="M5602 2218 c-9 -9 -5 -20 15 -47 15 -20 32 -39 37 -43 6 -4 109 -8 229 -8 l217 0 0 -100 c0 -93 1 -100 20 -100 19 0 20 7 20 120 l0 120 -229 0 -230 0 -27 35 c-29 38 -34 41 -52 23z"/>
 <path d="M4630 1948 l0 -241 -146 -147 c-145 -147 -145 -147 -147 -196 -2 -43 0 -49 18 -49 16 0 21 8 23 40 3 37 15 52 147 185 l145 145 0 253 c0 245 -1 252 -20 252 -19 0 -20 -7 -20 -242z"/>
 <path d="M5564 2115 c-3 -8 8 -32 26 -55 l32 -40 157 2 c148 3 156 4 156 23 0 19 -8 20 -152 25 -151 5 -151 5 -173 33 -24 30 -38 34 -46 12z"/>
 <path d="M5511 2036 c-12 -14 -9 -22 21 -58 l34 -42 105 0 104 -1 5 -40 c4 -32 9 -40 25 -40 18 0 20 7 20 60 l0 60 -120 3 -120 2 -30 36 c-28 33 -32 35 -44 20z"/>
 <path d="M4768 1883 c-2 -5 -2 -81 0 -171 l3 -162 222 2 222 3 3 168 2 167 -224 0 c-124 0 -226 -3 -228 -7z"/>
 <path d="M5440 1650 c0 -93 1 -100 20 -100 18 0 20 7 20 80 l0 80 326 0 c305 0 325 1 322 18 -3 16 -29 17 -346 20 l-342 2 0 -100z"/>
 <path d="M6390 1558 c1 -81 2 -84 38 -126 l38 -42 194 -1 195 -1 0 43 0 44 -174 3 c-210 3 -211 3 -211 99 l0 63 -40 0 -40 0 0 -82z"/>
 <path d="M4644 1535 c-6 -14 78 -116 113 -138 7 -4 90 -6 185 -5 171 3 173 3 176 26 l3 22 -173 0 -174 0 -54 55 c-58 59 -67 64 -76 40z"/>
 <path d="M5247 1473 c-13 -12 -8 -258 5 -271 15 -15 305 -17 310 -2 2 5 2 70 0 145 l-3 135 -153 0 c-84 0 -156 -3 -159 -7z"/>
 <path d="M6348 1434 c-34 -18 -34 -20 -4 -86 12 -29 26 -61 29 -70 6 -17 27 -18 251 -18 l245 0 3 -87 3 -88 43 -3 43 -3 -3 133 -3 133 -261 3 -260 2 -22 50 c-12 28 -25 50 -29 50 -5 -1 -20 -8 -35 -16z"/>
 <path d="M5643 1425 c-3 -9 -1 -21 4 -26 5 -5 105 -8 244 -7 226 3 234 4 234 23 0 19 -8 20 -238 23 -209 2 -238 0 -244 -13z"/>
 <path d="M6246 1347 l-28 -23 27 -54 c15 -30 38 -72 51 -92 l24 -38 215 0 215 0 0 44 c0 36 -4 46 -20 51 -11 4 -100 5 -197 4 l-176 -3 -34 67 c-18 37 -37 67 -41 67 -4 0 -20 -10 -36 -23z"/>
 <path d="M5630 1339 c0 -24 23 -21 28 4 2 10 -3 17 -12 17 -10 0 -16 -9 -16 -21z"/>
 <path d="M5670 1340 c0 -20 4 -20 228 -18 194 3 227 5 227 18 0 13 -33 15 -227 18 -224 2 -228 2 -228 -18z"/>
 <path d="M4645 1340 c-16 -26 14 -30 199 -30 l193 0 47 -41 c42 -37 49 -40 62 -27 13 13 9 20 -35 61 l-50 47 -205 0 c-126 0 -207 -4 -211 -10z"/>
 <path d="M5637 1274 c-4 -4 -7 -13 -7 -21 0 -10 34 -13 165 -13 l166 0 -3 -72 -3 -73 -337 -3 -338 -2 0 -45 0 -45 439 0 438 0 82 -105 82 -105 580 0 579 0 0 45 0 45 -562 0 -563 0 -30 43 c-16 23 -52 70 -79 105 l-50 62 -98 0 -97 0 -3 93 -3 92 -176 3 c-96 1 -178 -1 -182 -4z"/>
 <path d="M5044 868 l1 -43 540 -2 540 -3 33 -37 c18 -21 54 -66 79 -100 l46 -63 314 0 314 0 -3 43 -3 42 -292 5 -291 5 -77 98 -76 97 -563 0 -564 0 2 -42z"/>
 </g>
<g id="layer2" fill="#3f3f3f" stroke="none">
 <path d="M0 5000 l0 -5000 7590 0 7590 0 0 5000 0 5000 -7590 0 -7590 0 0 -5000z m8236 4599 c24 -6 44 -17 44 -25 0 -7 -13 -75 -29 -151 -17 -76 -37 -176 -45 -223 -9 -47 -25 -134 -37 -195 -62 -330 -73 -398 -118 -710 -80 -557 -76 -506 -76 -925 0 -243 5 -429 13 -505 7 -66 20 -190 28 -275 27 -279 63 -480 113 -626 112 -334 228 -562 432 -849 127 -179 202 -298 255 -405 52 -104 120 -268 144 -345 6 -22 22 -69 35 -105 146 -412 162 -837 54 -1410 -77 -403 -236 -793 -448 -1100 -159 -230 -455 -532 -689 -705 -44 -32 -78 -63 -75 -67 20 -34 345 -165 530 -214 214 -56 547 -112 823 -138 213 -20 703 -21 865 -1 222 27 479 80 650 134 606 192 1120 578 1357 1021 62 116 140 310 193 480 64 204 161 492 203 600 81 210 92 380 37 525 -67 176 -75 205 -76 279 -1 109 26 173 160 371 274 408 361 535 415 605 103 137 138 238 105 303 -37 72 -142 142 -277 186 -51 16 -105 39 -121 51 -78 55 -92 147 -41 275 52 130 40 166 -92 289 l-90 83 33 23 c78 54 90 112 40 193 -17 25 -49 81 -73 124 -38 70 -43 85 -43 143 1 41 10 92 25 140 33 101 34 263 2 358 -43 127 -128 223 -251 283 -118 57 -215 76 -456 89 -388 22 -470 29 -570 55 -120 30 -195 65 -252 118 -63 58 -78 107 -78 257 0 124 11 408 20 505 3 28 7 84 10 125 12 194 17 257 30 425 8 99 19 225 25 280 5 55 17 177 25 270 22 247 36 378 40 385 2 3 25 4 51 2 l47 -4 -6 -82 c-4 -44 -20 -238 -37 -431 -65 -742 -88 -1068 -96 -1349 -6 -199 -5 -225 10 -258 53 -111 225 -163 596 -179 458 -20 636 -58 788 -170 64 -47 146 -148 180 -222 60 -128 71 -325 28 -472 -36 -124 -35 -146 20 -240 26 -44 58 -99 71 -123 37 -62 42 -147 14 -206 l-22 -45 50 -53 c106 -109 121 -198 62 -350 -22 -56 -31 -95 -27 -111 8 -32 44 -55 122 -77 146 -42 296 -148 336 -238 24 -54 25 -155 2 -224 -16 -48 -91 -168 -159 -253 -18 -22 -115 -164 -217 -315 -101 -151 -200 -297 -218 -324 -40 -59 -80 -164 -80 -211 0 -19 14 -74 31 -122 17 -48 42 -122 57 -163 23 -65 26 -91 26 -195 0 -142 -21 -228 -114 -470 -32 -82 -70 -190 -85 -240 -92 -311 -176 -538 -265 -716 -225 -451 -730 -855 -1340 -1071 -190 -67 -493 -135 -725 -164 -168 -20 -699 -23 -920 -5 -140 12 -376 42 -470 61 -443 88 -654 155 -881 276 l-139 74 -659 0 -659 0 -76 81 c-42 45 -79 87 -83 94 -8 14 27 65 44 65 6 0 41 -32 77 -70 l66 -71 609 0 c335 0 610 2 612 4 2 2 -20 21 -48 43 -28 21 -61 47 -74 57 -20 16 -49 18 -261 20 l-238 2 -3 183 c-2 165 -4 182 -20 182 -9 1 -89 2 -177 3 l-160 2 0 45 0 45 177 5 178 5 -38 50 c-100 134 -154 218 -224 350 l-47 90 -1 -113 0 -113 -61 -67 c-34 -37 -68 -73 -75 -81 -10 -11 -18 -9 -48 14 -20 15 -36 31 -36 35 0 4 26 35 58 70 l57 63 5 141 c5 138 5 141 28 141 23 0 25 6 12 40 -4 11 -25 70 -48 130 -22 61 -42 117 -45 125 -3 8 -6 -102 -6 -245 l-1 -260 -96 -98 c-88 -90 -124 -112 -124 -77 0 6 40 52 90 103 l90 92 0 259 c0 257 0 258 21 253 16 -4 19 -2 14 11 -7 19 -52 196 -57 227 -2 15 -23 -3 -91 -82 l-87 -101 0 -291 0 -291 -35 0 -35 0 0 306 0 307 68 75 c37 41 88 100 113 131 43 53 45 58 37 96 -15 69 -48 296 -48 330 0 46 -10 49 -47 13 l-33 -32 0 -159 0 -158 -32 3 -33 3 -2 170 -3 170 69 72 69 73 -3 102 c-2 98 8 282 19 341 4 19 1 27 -9 27 -13 0 -15 57 -15 426 l0 425 53 57 c28 31 57 62 62 68 6 6 32 35 59 63 l48 52 24 -22 c20 -18 22 -25 11 -37 -20 -26 -89 -104 -140 -158 l-47 -51 2 -309 3 -309 23 75 c113 370 212 586 381 830 244 350 258 372 343 545 167 334 254 649 288 1044 79 886 67 1150 -90 2086 -50 299 -59 352 -85 475 -27 125 -85 431 -85 445 0 13 66 15 480 15 313 0 480 3 480 10 0 12 1 12 56 -1z m-1316 -2051 l0 -1953 -121 -105 c-67 -58 -127 -109 -135 -113 -9 -5 -14 -26 -14 -62 0 -37 -4 -55 -12 -56 -7 -1 -20 -2 -28 -3 -29 -3 -35 12 -30 79 l5 67 80 68 c44 38 103 88 132 112 l52 43 1 1938 0 1937 35 0 35 0 0 -1952z m-2379 1525 c59 -35 61 -132 2 -170 l-23 -15 0 -687 0 -686 84 -86 84 -86 1 -106 c1 -103 2 -106 31 -136 41 -40 41 -88 1 -133 -24 -27 -36 -33 -71 -33 -35 0 -47 6 -71 33 -40 45 -40 93 1 134 29 29 30 32 30 125 l0 96 -80 78 -80 77 0 707 0 706 -29 24 c-95 81 13 221 120 158z m672 -112 c72 -28 91 -115 37 -169 l-30 -30 0 -580 c0 -574 0 -579 21 -598 12 -11 32 -17 49 -16 64 7 125 -58 113 -120 -14 -74 -111 -105 -167 -53 -21 20 -26 33 -26 73 0 41 -5 53 -30 77 l-30 29 0 597 c0 579 -1 598 -19 604 -21 6 -51 62 -51 94 0 32 30 72 65 87 37 16 38 16 68 5z m-387 -262 c41 -38 57 -77 51 -125 -4 -42 -2 -45 49 -94 l54 -51 0 -229 c0 -213 1 -230 19 -239 10 -6 26 -22 36 -38 64 -98 16 -210 -96 -221 -65 -6 -108 15 -138 68 -38 69 -17 150 49 188 l30 17 0 205 0 204 -36 37 c-35 36 -39 37 -88 32 -38 -4 -61 -1 -85 11 -95 50 -94 208 2 252 47 21 121 13 153 -17z m582 -8 c12 -10 22 -23 22 -28 0 -5 -20 -29 -45 -53 l-45 -44 0 -428 0 -428 -35 0 -35 0 0 442 0 442 57 58 c32 32 58 58 59 58 0 0 11 -8 22 -19z m590 -626 c1 -247 0 -459 -2 -471 -3 -11 -24 -42 -47 -67 -22 -26 -42 -55 -44 -65 -2 -9 -4 -95 -4 -189 l-1 -173 -30 0 c-40 0 -43 14 -38 223 l3 174 48 61 47 60 0 452 0 451 33 -3 32 -3 3 -450z m1247 405 c18 -20 18 -21 -11 -52 -16 -18 -37 -38 -46 -46 -17 -12 -18 -45 -18 -441 l0 -429 -30 -4 c-17 -3 -32 -2 -35 0 -3 3 -5 204 -5 447 l0 442 54 52 c30 28 59 51 64 51 5 0 17 -9 27 -20z m-1645 -397 l0 -298 94 -95 c74 -74 95 -102 96 -125 3 -52 1 -55 -35 -55 -31 0 -35 3 -35 27 0 21 -21 48 -90 118 l-90 91 -3 317 -2 317 33 0 32 0 0 -297z m704 220 l46 -48 0 -375 0 -376 -35 4 -35 4 0 356 1 355 -36 37 c-39 40 -42 51 -19 74 23 23 28 21 78 -31z m-1614 -372 l-1 -336 195 -3 196 -2 0 -240 0 -240 -35 0 -35 0 0 205 0 205 -197 2 -198 3 -3 365 c-1 201 0 370 2 376 2 6 20 8 40 6 l36 -4 0 -337z m1940 -289 l0 -498 -177 -177 -177 -177 -25 25 -26 25 168 168 167 167 0 483 0 482 35 0 35 0 0 -498z m-559 41 c1 -49 2 -94 3 -100 0 -7 64 -79 141 -160 136 -143 153 -169 126 -196 -7 -7 -152 136 -277 272 l-49 53 -1 102 c-1 55 0 104 3 109 2 4 15 7 29 7 24 0 24 -2 25 -87z m-551 -116 l0 -123 -39 -38 c-29 -28 -44 -36 -59 -32 -34 11 -35 37 -2 71 29 30 30 33 30 131 0 56 3 104 7 107 3 4 19 7 35 7 l28 0 0 -123z m1793 -35 l47 -48 0 -364 c1 -201 1 -371 0 -378 0 -9 -11 -12 -31 -10 l-31 3 -1 357 -2 357 -37 38 c-21 22 -38 43 -38 48 0 10 30 45 39 45 4 0 28 -22 54 -48z m-2363 -147 l0 -66 -57 3 -58 3 -3 49 c-5 71 -1 76 63 76 l55 0 0 -65z m2238 -12 l-3 -58 -60 0 -60 0 -1 50 c0 28 1 53 3 58 2 4 31 7 64 7 l60 0 -3 -57z m-1653 -263 l0 -185 -185 0 -185 0 -3 175 c-1 96 0 180 3 187 3 11 44 13 187 11 l183 -3 0 -185z m625 -295 l0 -445 -35 0 -35 0 0 438 c0 241 3 442 7 445 3 4 19 7 35 7 l28 0 0 -445z m-1210 385 c0 -27 0 -53 0 -57 0 -5 -26 -8 -57 -8 l-58 0 -3 58 -3 57 61 0 60 0 0 -50z m2238 -22 l3 -56 -49 -4 c-81 -5 -84 -3 -81 55 1 29 4 56 6 60 3 4 30 7 61 5 l57 -3 3 -57z m-2821 32 c45 -27 66 -73 61 -130 -14 -141 -187 -177 -259 -55 l-21 35 -381 0 -380 0 -134 -132 -133 -133 0 -262 c0 -245 1 -262 18 -267 54 -17 87 -96 71 -162 -28 -110 -184 -137 -247 -44 -20 30 -23 44 -20 94 4 54 8 63 41 91 l37 32 0 280 0 279 164 162 163 162 412 0 c257 0 411 4 411 10 0 5 17 21 37 35 47 31 114 34 160 5z m2803 -544 c0 -340 2 -377 18 -417 68 -161 73 -181 70 -269 l-3 -85 -32 -3 -31 -3 -4 93 c-3 81 -9 107 -46 197 l-42 105 0 371 c0 205 3 375 7 378 3 4 19 7 35 7 l28 0 0 -374z m-3609 163 l60 -62 57 57 c60 60 72 65 92 41 11 -13 3 -25 -48 -76 l-60 -60 163 -165 163 -164 101 0 101 0 0 -25 0 -25 -116 0 -116 0 -251 250 c-246 246 -250 250 -232 270 10 11 20 20 22 20 3 0 32 -28 64 -61z m2939 -76 l1 -108 66 -45 c37 -25 71 -44 76 -42 5 1 6 -1 3 -6 -2 -4 33 -34 80 -66 l84 -57 -2 -267 -3 -267 -35 0 -35 0 -2 250 c-2 233 -3 251 -21 265 -11 8 -52 38 -91 65 -40 28 -99 69 -131 92 l-60 43 0 125 0 125 35 0 35 0 0 -107z m-1625 32 c0 -39 -1 -40 -35 -40 -31 0 -35 3 -38 28 -5 46 4 59 40 55 31 -3 33 -5 33 -43z m163 3 c-3 -40 -5 -43 -33 -43 -34 0 -35 2 -35 50 0 33 2 35 36 35 l35 0 -3 -42z m162 3 c0 -36 -2 -39 -32 -44 -43 -6 -48 -2 -48 37 0 41 5 46 47 46 32 0 33 -1 33 -39z m161 32 c0 -5 2 -19 3 -33 5 -39 -3 -48 -40 -47 -33 1 -34 2 -34 44 0 42 0 43 35 43 19 0 35 -3 36 -7z m-1380 -73 c5 0 9 -18 9 -41 l0 -40 -42 3 c-42 3 -43 4 -46 40 -3 31 0 37 20 41 13 2 29 3 36 1 8 -2 18 -4 23 -4z m167 1 c7 -1 12 -16 12 -41 l0 -40 -40 0 c-40 0 -40 0 -40 38 0 45 3 50 33 47 12 -1 28 -3 35 -4z m182 -38 l0 -44 -42 3 c-43 3 -43 3 -40 38 5 46 4 45 46 46 36 0 36 0 36 -43z m1520 -152 l0 -198 -42 -52 c-46 -56 -56 -60 -82 -32 -20 22 -13 41 28 80 l26 24 0 183 0 183 33 4 c17 2 33 5 35 5 1 1 2 -87 2 -197z m-2066 -113 l247 -253 217 -5 c216 -5 217 -5 220 -27 l3 -23 -233 0 -234 0 -247 255 -248 254 -67 3 c-61 3 -67 5 -70 26 -3 21 -1 22 81 22 l85 0 246 -252z m666 120 l0 -112 -47 -48 c-52 -52 -58 -55 -79 -34 -20 21 -19 24 31 72 l45 43 0 95 c0 96 0 96 25 96 l25 0 0 -112z m1180 37 l44 -45 -21 -21 -21 -22 -38 42 -38 41 -437 0 c-449 0 -455 1 -441 38 3 9 104 12 456 12 l452 0 44 -45z m660 -405 l0 -370 42 -108 c38 -98 42 -115 42 -202 l1 -95 -35 0 -35 0 3 76 c3 72 0 85 -42 191 l-46 115 0 375 c0 206 3 378 7 381 3 4 19 7 35 7 l28 0 0 -370z m-786 248 c-1 -10 -2 -22 -3 -26 0 -4 -50 -8 -111 -8 l-109 -1 -86 -82 -85 -81 -232 2 -233 3 -3 28 -3 27 225 0 225 0 51 48 c29 26 68 62 88 80 l35 33 121 -3 c108 -3 121 -5 120 -20z m1176 -472 l0 -405 -105 -102 -105 -102 0 -172 0 -171 -27 2 c-16 1 -31 2 -35 3 -5 0 -8 83 -8 184 l0 183 105 104 106 104 -3 388 -3 388 38 0 37 0 0 -404z m-1175 344 l0 -25 -114 -3 -114 -3 -79 -74 -78 -75 -241 0 -240 0 3 23 c3 22 3 22 224 25 l221 2 29 27 c16 14 56 51 89 82 l60 56 120 -5 c120 -5 120 -5 120 -30z m-2157 -62 l3 -88 34 0 c33 0 35 -2 35 -35 l0 -35 -70 0 -70 0 0 126 0 125 33 -3 32 -3 3 -87z m222 2 l0 -90 41 0 c39 0 40 -1 37 -32 l-3 -33 -70 0 -70 0 -3 109 c-1 61 0 116 2 123 3 7 19 13 36 13 l30 0 0 -90z m228 -2 l3 -88 33 0 c30 0 34 -3 38 -31 6 -38 -2 -41 -78 -37 l-59 3 -3 109 c-1 61 0 116 3 124 3 8 16 12 32 10 28 -3 28 -3 31 -90z m2117 22 c17 -19 16 -21 -39 -80 l-56 -61 0 -403 0 -404 -23 -4 c-48 -9 -47 -21 -47 421 l0 417 61 67 c34 37 67 67 74 67 6 0 20 -9 30 -20z m-415 -70 c0 -33 4 -32 -115 -36 -38 -1 -79 -3 -90 -3 -11 -1 -56 -35 -100 -76 l-80 -75 -237 0 -238 0 0 25 0 25 223 0 223 0 90 85 89 84 118 1 117 0 0 -30z m-1442 -132 c12 -12 22 -27 22 -35 0 -10 21 -13 83 -13 131 0 194 -27 250 -106 49 -70 56 -132 57 -506 0 -315 1 -338 18 -339 109 -6 153 -11 224 -23 93 -17 201 -44 296 -74 l62 -20 0 67 0 66 161 163 161 162 145 0 144 0 -3 -32 -3 -33 -129 -5 -128 -5 -139 -140 -139 -140 0 -67 0 -66 78 -45 c397 -229 617 -618 648 -1142 11 -184 -35 -473 -100 -630 -66 -160 -148 -285 -262 -402 -39 -40 -69 -75 -66 -78 3 -3 75 -5 161 -5 l155 0 36 41 c27 32 44 42 76 46 74 10 134 -43 134 -117 0 -75 -72 -129 -145 -109 -35 10 -85 51 -85 70 0 5 -96 9 -212 9 l-213 0 -80 -48 c-191 -115 -441 -201 -657 -227 l-58 -7 0 -285 0 -285 -149 -161 -149 -162 5 -52 c8 -82 -40 -145 -119 -156 -82 -11 -158 56 -158 139 0 89 69 151 155 142 l45 -6 140 153 140 153 0 305 0 304 68 6 c183 16 454 94 602 174 289 155 457 352 574 673 24 66 56 268 63 395 7 148 -23 361 -75 532 -16 51 -81 190 -118 253 -70 116 -207 262 -320 341 -167 115 -442 203 -701 224 l-83 6 0 -60 0 -61 33 0 c57 0 209 -31 297 -60 162 -54 214 -78 302 -137 l38 -26 35 27 c44 34 48 31 148 -74 81 -84 165 -205 218 -311 48 -97 106 -285 123 -401 23 -156 21 -400 -4 -506 -79 -331 -327 -622 -680 -799 -46 -24 -90 -43 -98 -43 -7 0 -24 25 -38 55 -22 46 -29 54 -47 50 -207 -48 -358 -62 -498 -46 -200 23 -349 74 -458 157 -34 26 -47 31 -61 24 -10 -6 -39 -10 -64 -10 -36 0 -52 6 -76 28 -36 31 -49 92 -28 132 17 32 74 70 105 70 59 0 123 -64 123 -124 0 -16 8 -35 18 -43 153 -124 428 -191 674 -164 104 11 186 26 279 51 50 14 48 15 69 -34 10 -24 23 -47 29 -51 6 -3 46 13 89 36 183 102 322 221 435 376 46 64 130 238 153 318 25 90 31 361 10 502 -39 262 -152 504 -317 678 l-66 69 -37 -27 -36 -28 -53 39 c-145 107 -409 192 -637 205 l-45 2 -5 500 c-5 471 -6 503 -25 549 -12 29 -35 61 -58 80 -37 29 -44 31 -137 34 -91 4 -98 2 -103 -17 -7 -29 -65 -61 -110 -61 -31 0 -46 7 -73 34 -29 29 -34 41 -34 80 0 106 120 156 198 84z m1047 -183 l0 -30 -230 0 c-214 0 -230 1 -233 18 -9 47 -7 48 235 45 l228 -3 0 -30z m-1913 -10 c3 -3 3 -17 0 -30 -4 -22 -9 -25 -48 -25 l-44 0 0 -105 c0 -105 0 -105 -24 -105 l-25 0 -3 131 c-2 72 -1 133 1 135 6 6 137 5 143 -1z m193 -25 c0 -22 -5 -25 -42 -28 l-43 -3 0 -105 0 -104 -30 0 -30 0 0 135 0 136 73 -3 c69 -3 72 -4 72 -28z m190 6 c36 -16 55 -42 55 -78 0 -16 23 -46 70 -93 l70 -69 0 -201 0 -201 -70 -69 -70 -69 0 -217 c0 -186 2 -218 15 -223 23 -9 46 -70 39 -105 -18 -89 -146 -103 -189 -21 -20 38 -19 48 5 95 18 36 20 60 21 269 l1 229 74 76 74 76 0 156 0 156 -49 53 c-38 41 -53 51 -69 46 -32 -11 -89 18 -107 54 -21 40 -13 89 18 117 39 35 62 39 112 19z m2103 -63 l-3 -28 -137 -3 -137 -3 -72 -79 -72 -80 -342 0 c-296 0 -344 2 -349 15 -15 39 -8 40 331 37 l327 -3 53 58 c30 32 64 70 76 85 l22 28 153 0 153 0 -3 -27z m2 -148 l0 -25 -136 0 -135 0 -42 -46 c-23 -26 -59 -64 -80 -85 l-37 -39 -343 2 -342 3 0 25 0 25 335 3 335 4 70 79 70 78 153 1 152 0 0 -25z m-1370 -130 c7 -9 11 -17 9 -20 -2 -2 -51 -51 -108 -109 l-105 -106 -81 0 -81 0 -86 -85 c-48 -47 -94 -85 -102 -85 -9 0 -16 2 -16 4 0 2 -3 11 -6 19 -3 9 29 49 89 111 l93 96 85 0 84 0 95 95 c52 52 100 95 106 95 6 0 17 -7 24 -15z m1365 -15 l0 -25 -137 -3 -137 -3 -73 -79 -72 -80 -346 2 -345 3 -1 23 c-1 16 4 22 20 22 11 0 161 1 333 3 l311 2 77 83 77 83 147 -3 146 -3 0 -25z m-2097 -63 l3 -27 -268 2 -268 3 -3 22 -3 23 248 2 c136 2 257 3 268 2 14 0 21 -9 23 -27z m733 -33 c11 -13 -3 -30 -97 -125 l-109 -109 -81 0 -82 0 -87 -87 c-70 -71 -89 -85 -102 -77 -9 6 -18 15 -20 21 -2 6 39 54 91 107 l95 96 83 0 84 0 93 95 c52 52 100 95 106 95 7 0 18 -7 26 -16z m-733 -69 l3 -25 -268 2 c-253 3 -268 4 -271 22 -2 10 1 21 6 25 6 3 126 5 269 4 l258 -2 3 -26z m734 -45 c8 -12 -14 -39 -99 -122 l-108 -108 -80 0 -80 0 -87 -85 c-48 -47 -91 -85 -96 -85 -5 0 -15 7 -22 15 -15 18 -16 16 109 141 l73 74 82 0 81 0 95 95 c93 94 113 105 132 75z m-1400 -15 c82 -56 80 -184 -5 -235 -42 -26 -110 -26 -151 0 l-32 19 -118 -44 c-135 -50 -159 -64 -187 -108 -28 -45 -22 -153 13 -217 126 -234 129 -238 178 -250 25 -6 53 -19 64 -28 70 -64 58 -195 -23 -237 -67 -34 -158 -6 -191 60 -19 39 -17 107 3 139 16 24 16 27 -4 63 -152 268 -164 300 -157 405 6 77 37 139 94 186 21 17 91 50 170 78 133 49 134 49 134 80 0 91 129 145 212 89z m498 -140 l0 -145 -30 0 -30 0 0 120 0 120 -140 0 -140 0 0 25 0 25 170 0 170 0 0 -145z m901 49 c11 -13 -3 -30 -97 -125 l-109 -109 -80 0 -81 0 -84 -85 c-86 -86 -114 -101 -125 -66 -4 15 16 41 92 115 l98 96 80 0 80 0 95 95 c52 52 100 95 106 95 6 0 17 -7 25 -16z m1910 -46 l69 -62 0 -573 0 -573 -90 -107 -90 -108 0 -537 0 -538 -35 0 -35 0 0 551 0 550 90 107 90 107 0 543 0 543 -60 55 c-58 55 -59 56 -43 80 8 13 20 24 25 24 5 0 41 -28 79 -62z m-313 -47 l3 -51 -313 2 -313 3 -3 47 -3 47 38 3 c21 2 162 2 313 1 l275 -1 3 -51z m-1598 -16 c7 -9 11 -17 9 -20 -2 -2 -51 -51 -108 -109 l-105 -106 -81 0 -82 0 -88 -89 c-74 -74 -92 -88 -107 -80 -10 5 -18 16 -18 23 0 7 44 56 97 109 l97 97 81 0 80 0 95 95 c52 52 100 95 106 95 6 0 17 -7 24 -15z m0 -110 c7 -9 11 -17 9 -20 -2 -2 -51 -51 -108 -109 l-105 -106 -81 0 -81 0 -86 -86 c-71 -71 -90 -85 -108 -79 -11 4 -20 13 -18 20 2 8 44 56 93 107 l90 92 86 4 86 4 94 94 c51 52 99 94 105 94 6 0 17 -7 24 -15z m1495 -140 l0 -140 -35 0 -35 0 -3 120 c-4 155 -1 167 41 163 l32 -3 0 -140z m110 123 c3 -13 4 -77 3 -143 l-3 -120 -32 0 c-18 0 -33 3 -33 8 0 4 0 68 0 142 l0 135 30 0 c22 0 31 -5 35 -22z m105 -123 l0 -145 -30 0 -30 0 0 145 0 145 30 0 30 0 0 -145z m110 10 c0 -74 0 -138 0 -142 0 -5 -15 -8 -32 -8 l-33 0 -3 129 c-1 72 0 136 2 143 3 7 19 13 36 13 l30 0 0 -135z m-3270 42 c0 -50 60 -105 120 -109 38 -3 46 -7 48 -25 3 -22 0 -23 -61 -23 -45 0 -68 5 -77 15 -20 24 -30 18 -30 -19 0 -22 -6 -36 -17 -40 -34 -13 -36 1 -33 199 0 31 3 35 25 35 22 0 25 -4 25 -33z m1815 -153 c92 -17 235 -70 316 -117 192 -111 371 -318 453 -524 55 -139 76 -246 76 -396 0 -328 -140 -621 -398 -828 -42 -34 -82 -74 -88 -89 -17 -40 -62 -52 -96 -26 -22 16 -29 54 -15 81 10 19 9 19 -17 1 -86 -56 -292 -106 -439 -106 -261 0 -492 94 -682 278 l-76 74 -77 -59 c-73 -56 -77 -61 -82 -106 -4 -30 -13 -52 -25 -62 -50 -37 -125 -1 -125 60 0 46 32 75 83 75 37 0 52 8 117 61 41 34 76 65 78 70 2 5 -8 23 -21 41 -84 112 -152 312 -159 468 l-3 75 106 3 106 3 6 72 c4 40 13 93 21 119 8 26 12 62 10 80 -7 43 22 74 60 64 43 -11 48 -82 7 -93 -24 -6 -50 -96 -59 -206 l-7 -82 -97 -3 c-54 -1 -98 -6 -98 -10 0 -49 36 -218 56 -270 39 -98 108 -222 124 -222 8 0 209 155 372 287 l66 54 -26 57 c-23 48 -27 70 -27 142 1 71 5 94 28 140 50 105 139 174 259 200 109 25 242 -21 320 -110 64 -73 80 -113 86 -217 4 -86 3 -95 -26 -156 -60 -130 -164 -199 -309 -205 -76 -4 -88 -1 -150 28 -38 17 -81 44 -98 60 l-30 28 -150 -119 c-82 -66 -163 -130 -179 -142 -15 -12 -45 -35 -67 -52 -21 -16 -38 -33 -38 -36 -2 -18 149 -151 221 -196 129 -81 334 -142 475 -143 146 0 363 63 484 142 114 73 139 96 139 131 0 38 25 67 59 67 43 -1 63 -23 59 -67 -3 -33 -7 -39 -35 -48 -18 -6 -50 -26 -72 -44 -23 -19 -62 -49 -88 -68 -46 -33 -46 -33 -17 -33 34 0 56 13 142 88 122 106 215 243 278 409 60 161 77 327 50 493 -82 492 -498 849 -993 850 -152 0 -270 -30 -273 -71 0 -3 27 1 60 10 54 14 62 14 70 1 17 -26 11 -37 -22 -44 -75 -14 -228 -69 -221 -79 3 -6 1 -7 -5 -3 -14 9 -156 -82 -227 -145 l-50 -44 -471 3 c-455 2 -472 3 -477 22 -3 10 -2 21 1 24 3 3 213 6 466 6 l461 0 50 45 c55 49 211 148 263 166 36 12 39 21 17 39 -8 7 -15 27 -15 46 0 41 27 59 77 51 19 -3 46 -1 61 4 69 27 315 28 447 3z m-40 -134 c208 -38 369 -123 522 -276 33 -32 117 -153 142 -203 120 -238 130 -499 30 -750 -16 -40 -29 -83 -29 -94 0 -25 -28 -57 -50 -57 -45 0 -57 73 -14 92 28 13 58 71 90 174 15 47 19 92 19 224 0 143 -3 174 -22 235 -49 155 -123 275 -235 381 -78 74 -123 106 -218 152 -141 68 -297 100 -340 69 l-21 -15 23 -5 c13 -3 46 -8 73 -12 199 -26 404 -154 537 -335 15 -21 46 -75 69 -120 122 -249 113 -527 -26 -776 -123 -220 -371 -386 -613 -410 -36 -4 -73 -13 -80 -21 -17 -16 -54 -17 -70 -1 -19 19 -14 55 8 71 19 13 16 15 -42 21 -98 11 -145 25 -253 76 -90 42 -205 126 -205 150 0 23 33 13 79 -24 72 -60 195 -122 277 -142 89 -21 286 -21 362 1 210 61 387 214 467 403 17 42 40 112 49 155 14 61 21 77 35 77 16 0 17 -6 9 -57 -47 -305 -266 -542 -574 -623 -43 -11 -98 -20 -123 -20 -42 0 -43 -1 -25 -15 36 -27 132 -13 275 41 207 78 391 279 461 504 31 101 33 327 4 435 -105 391 -519 651 -908 570 -140 -29 -329 -120 -337 -161 -5 -30 -22 -44 -52 -44 -63 0 -58 71 6 89 20 5 64 27 98 48 70 44 102 59 167 79 59 19 203 43 260 44 37 1 41 3 23 10 -16 7 -23 18 -23 38 0 37 19 55 50 47 14 -3 70 -14 125 -25z m-60 -155 c150 -26 302 -100 410 -200 49 -46 86 -95 79 -106 -7 -11 -44 -12 -44 -1 0 13 -100 111 -144 141 -151 102 -276 138 -455 128 -113 -6 -198 -28 -283 -74 -46 -25 -68 -24 -68 1 0 19 144 82 226 100 131 29 167 30 279 11z m1476 -95 c27 -44 27 -48 28 -221 l1 -175 -33 -40 c-18 -21 -45 -56 -60 -76 l-27 -37 0 -480 0 -481 -35 0 -35 0 0 494 0 493 60 78 60 78 0 147 c0 140 -1 150 -26 194 -25 46 -26 48 -8 61 29 22 45 14 75 -35z m-1491 -75 c87 -13 203 -60 236 -96 15 -16 14 -20 -12 -53 -27 -33 -30 -34 -49 -21 -65 49 -226 91 -302 80 -39 -6 -43 -4 -58 25 -26 49 -17 64 40 71 50 6 62 6 145 -6z m-696 -19 c70 -29 87 -102 37 -158 -25 -28 -36 -33 -75 -33 -38 0 -49 5 -74 33 -27 30 -32 32 -99 32 l-70 0 -68 -75 -69 -75 -298 0 -298 0 0 30 0 30 277 0 276 0 75 80 75 80 88 0 c83 0 89 1 105 25 9 14 30 29 48 34 17 5 32 10 34 10 1 1 18 -5 36 -13z m415 -28 c25 -68 26 -66 -35 -93 -146 -64 -274 -268 -274 -434 0 -60 26 -165 54 -220 10 -18 16 -34 14 -34 -2 -1 -17 -12 -35 -25 -18 -12 -36 -22 -41 -22 -9 0 -55 95 -74 155 -20 65 -15 229 9 308 45 145 151 275 285 351 74 42 86 44 97 14z m886 -251 c30 -80 31 -97 8 -97 -13 0 -26 21 -45 74 -32 83 -33 92 -15 99 18 7 24 -1 52 -76z m-154 -65 c60 -144 52 -334 -21 -476 -104 -203 -303 -326 -528 -326 -133 0 -284 55 -380 138 l-44 38 37 36 c41 40 31 42 105 -23 58 -50 180 -89 285 -89 176 0 327 86 415 237 54 93 70 150 71 244 1 86 -12 141 -49 217 -14 28 -23 53 -21 55 38 29 75 44 86 36 6 -6 26 -45 44 -87z m1301 -99 c10 -9 18 -21 18 -27 0 -14 -141 -156 -156 -156 -6 0 -19 9 -29 20 -19 20 -18 22 60 100 44 44 82 80 84 80 2 0 13 -7 23 -17z m-3037 -138 l0 -30 -155 0 c-141 0 -155 2 -158 18 -9 46 -1 48 160 45 l153 -3 0 -30z m3046 -74 c-11 -14 -43 -47 -72 -73 -30 -25 -57 -50 -62 -54 -4 -4 -18 3 -32 16 l-25 24 81 78 81 79 24 -22 c23 -22 23 -22 5 -48z m-3319 -108 c18 -16 46 -40 63 -55 l29 -27 161 0 c219 1 205 3 205 -26 l0 -25 -198 0 -198 0 -66 58 c-69 59 -76 70 -56 90 17 17 22 16 60 -15z m188 -18 c0 -34 -1 -35 -40 -35 -39 0 -40 1 -40 35 0 34 1 35 40 35 39 0 40 -1 40 -35z m170 -1 c0 -32 -2 -34 -35 -34 -21 0 -35 5 -35 12 0 9 -3 9 -12 0 -7 -7 -27 -12 -45 -12 -31 0 -33 2 -33 35 l0 34 80 0 80 0 0 -35z m88 4 c-3 -30 -6 -33 -40 -36 -37 -3 -38 -3 -38 32 0 35 1 36 41 36 39 0 40 -1 37 -32z m2875 8 c9 -7 17 -17 17 -22 0 -5 -35 -44 -78 -87 l-78 -78 -23 25 -23 24 73 76 c41 42 79 76 84 76 6 -1 18 -7 28 -14z m-3295 -130 c64 -35 85 -147 37 -204 -31 -37 -31 -59 -4 -210 21 -124 51 -242 94 -382 15 -47 33 -107 41 -134 52 -165 223 -515 336 -682 137 -204 323 -412 493 -552 262 -215 624 -385 967 -456 163 -34 403 -66 489 -66 65 0 71 2 97 31 35 40 109 51 163 25 98 -48 103 -181 10 -243 -57 -38 -124 -29 -177 25 -28 28 -34 29 -149 36 -390 23 -804 140 -1130 318 -627 345 -1084 974 -1304 1798 -23 88 -67 302 -77 380 -6 47 -12 60 -45 88 -45 39 -64 91 -49 141 13 46 37 80 63 91 33 13 119 11 145 -4z m780 -876 l2 -215 -80 -80 -80 -80 0 -98 c0 -96 0 -98 -22 -95 -22 3 -23 7 -25 103 l-1 99 80 83 81 83 -1 201 c-1 111 1 206 4 211 3 5 13 8 22 6 15 -3 17 -27 20 -218z m-160 16 c1 -109 -1 -183 -8 -191 -5 -6 -20 -11 -32 -9 -13 1 -33 3 -45 3 l-23 1 0 191 0 190 53 -3 52 -3 3 -179z m230 -37 l2 -204 -80 -80 -80 -80 0 -106 c0 -82 -3 -108 -14 -112 -8 -3 -17 -3 -20 0 -3 4 -6 59 -6 122 l0 116 80 80 80 80 0 191 c0 105 3 194 7 198 23 23 28 -12 31 -205z m73 -24 l-2 -190 -79 -80 -80 -80 0 -123 c0 -115 -1 -122 -20 -122 -19 0 -20 7 -20 133 l0 132 80 80 80 80 0 183 c0 180 0 183 21 180 20 -3 21 -7 20 -193z m77 -16 l2 -174 -80 -80 -80 -80 0 -138 c0 -115 -3 -139 -15 -144 -9 -3 -18 -3 -22 0 -3 3 -6 72 -7 153 l-1 147 78 75 77 75 0 162 c0 113 4 165 12 173 28 28 33 3 36 -169z m72 -22 l0 -162 -80 -80 -80 -80 0 -152 c0 -146 -1 -153 -20 -153 -19 0 -20 7 -20 164 l0 164 80 78 80 77 0 154 c0 146 1 153 20 153 19 0 20 -7 20 -163z m79 -18 l2 -141 -85 -87 -84 -86 -2 -164 c0 -91 -3 -167 -5 -169 -2 -3 -11 -2 -20 1 -13 5 -15 33 -15 178 l0 171 80 82 80 82 0 137 0 137 24 0 23 0 2 -141z m69 -23 l3 -128 -86 -87 -85 -87 0 -175 c0 -97 -3 -179 -7 -182 -3 -4 -12 -2 -20 5 -11 9 -13 49 -13 192 l2 180 84 86 84 86 0 123 c0 111 2 122 18 119 15 -3 17 -19 20 -132z m1162 -342 c0 -428 -1 -455 -17 -452 -17 3 -18 34 -21 456 -2 447 -2 452 18 452 20 0 20 -6 20 -456z m-1092 321 l3 -119 -78 -78 -78 -77 -5 -198 c-4 -167 -7 -198 -20 -198 -13 0 -15 31 -18 205 l-2 205 80 80 80 80 0 106 c0 58 3 109 7 113 21 20 28 -9 31 -119z m1012 -96 c0 -130 -4 -209 -10 -207 -21 7 -270 263 -266 273 2 6 33 25 68 42 36 17 91 48 124 67 32 20 65 36 72 36 9 0 12 -49 12 -211z m808 88 l3 -97 -210 0 -209 0 -33 41 c-28 36 -30 42 -17 55 13 13 18 11 42 -20 l27 -36 180 0 179 0 0 73 c0 41 3 77 7 81 19 19 28 -8 31 -97z m-1742 68 c3 -14 4 -61 2 -105 l-3 -80 -83 -83 -83 -83 1 -195 c0 -107 1 -200 0 -206 0 -7 -9 -13 -20 -13 -19 0 -20 7 -20 218 l0 217 80 80 80 80 0 91 c0 50 3 94 7 97 14 15 33 6 39 -18z m668 -203 c44 -43 125 -120 179 -172 l97 -93 0 -184 c0 -156 -2 -183 -15 -183 -13 0 -15 25 -16 163 -1 89 -1 165 -1 168 1 3 -82 86 -183 184 -102 97 -182 181 -179 186 13 21 41 4 118 -69z m590 13 l27 -35 230 0 229 0 0 -120 c0 -113 -1 -120 -20 -120 -19 0 -20 7 -20 100 l0 100 -217 0 c-120 0 -223 4 -229 8 -5 4 -22 23 -37 43 -20 27 -24 38 -15 47 18 18 23 15 52 -23z m-984 -257 l0 -253 -145 -145 c-132 -133 -144 -148 -147 -185 -2 -32 -7 -40 -23 -40 -18 0 -20 6 -18 49 2 49 2 49 147 196 l146 147 0 241 c0 235 1 242 20 242 19 0 20 -7 20 -252z m940 165 c22 -28 22 -28 173 -33 144 -5 152 -6 152 -25 0 -19 -8 -20 -156 -23 l-157 -2 -32 40 c-18 23 -29 47 -26 55 8 22 22 18 46 -12z m95 -125 l120 -3 0 -60 c0 -53 -2 -60 -20 -60 -16 0 -21 8 -25 40 l-5 40 -104 1 -105 0 -34 42 c-30 36 -33 44 -21 58 12 15 16 13 44 -20 l30 -36 120 -2z m-487 -255 l-3 -168 -222 -3 -222 -2 -3 162 c-2 90 -2 166 0 171 2 4 104 7 228 7 l224 0 -2 -167z m910 5 c3 -17 -17 -18 -322 -18 l-326 0 0 -80 c0 -73 -2 -80 -20 -80 -19 0 -20 7 -20 100 l0 100 342 -2 c317 -3 343 -4 346 -20z m342 -151 c0 -96 1 -96 211 -99 l174 -3 0 -44 0 -43 -195 1 -194 1 -38 42 c-36 42 -37 45 -38 126 l0 82 40 0 40 0 0 -63z m-1750 -82 l54 -55 174 0 173 0 -3 -22 c-3 -23 -5 -23 -176 -26 -95 -1 -178 1 -185 5 -35 22 -119 124 -113 138 9 24 18 19 76 -40z m842 -150 c2 -75 2 -140 0 -145 -5 -15 -295 -13 -310 2 -13 13 -18 259 -5 271 3 4 75 7 159 7 l153 0 3 -135z m850 55 l22 -50 260 -2 261 -3 3 -133 3 -133 -43 3 -43 3 -3 88 -3 87 -245 0 c-224 0 -245 1 -251 18 -3 9 -17 41 -29 70 -13 29 -24 57 -24 62 0 9 47 39 63 40 4 0 17 -22 29 -50z m-287 15 c0 -19 -8 -20 -234 -23 -139 -1 -239 2 -244 7 -5 5 -7 17 -4 26 6 13 35 15 244 13 230 -3 238 -4 238 -23z m198 -112 l34 -67 176 3 c97 1 186 0 197 -4 16 -5 20 -15 20 -51 l0 -44 -215 0 -215 0 -24 38 c-13 20 -36 62 -51 92 l-27 54 28 23 c16 13 32 23 36 23 4 0 23 -30 41 -67z m-665 40 c-5 -25 -28 -28 -28 -4 0 12 6 21 16 21 9 0 14 -7 12 -17z m467 -3 c0 -13 -33 -15 -227 -18 -224 -2 -228 -2 -228 18 0 20 4 20 228 18 194 -3 227 -5 227 -18z m-1014 -37 c44 -41 48 -48 35 -61 -13 -13 -20 -10 -62 27 l-47 41 -193 0 c-185 0 -215 4 -199 30 4 6 85 10 211 10 l205 0 50 -47z m887 -120 l3 -93 97 0 98 0 50 -62 c27 -35 63 -82 79 -105 l30 -43 563 0 562 0 0 -45 0 -45 -579 0 -580 0 -82 105 -82 105 -438 0 -439 0 0 45 0 45 338 2 337 3 3 73 3 72 -166 0 c-131 0 -165 3 -165 13 0 8 3 17 7 21 4 3 86 5 182 4 l176 -3 3 -92z m247 -370 l77 -98 291 -5 292 -5 3 -42 3 -43 -314 0 -314 0 -46 63 c-25 34 -61 79 -79 100 l-33 37 -540 3 -540 2 -1 43 -2 42 564 0 563 0 76 -97z"/>
 <path d="M7080 1393 l0 -143 143 0 142 0 -72 66 c-40 36 -104 100 -143 142 l-70 77 0 -142z"/>
 <path d="M4463 9009 c-17 -17 -3 -49 22 -49 27 0 40 26 24 46 -14 17 -31 18 -46 3z"/>
 <path d="M4632 7058 c-16 -16 -15 -33 4 -48 22 -19 54 12 38 37 -14 22 -27 26 -42 11z"/>
 <path d="M5164 8886 c-24 -18 -11 -46 21 -46 20 0 25 5 25 24 0 29 -22 39 -46 22z"/>
 <path d="M5287 7493 c-4 -3 -7 -17 -7 -30 0 -18 6 -23 24 -23 13 0 27 7 30 16 11 28 -27 57 -47 37z"/>
 <path d="M4706 8615 c-19 -20 -20 -26 -3 -49 27 -38 95 2 71 42 -15 23 -48 27 -68 7z"/>
 <path d="M4892 7868 c-26 -26 -6 -68 33 -68 41 0 58 36 29 64 -18 19 -45 21 -62 4z"/>
 <path d="M4265 7114 c-20 -20 -16 -53 8 -68 39 -24 79 44 41 71 -23 17 -29 16 -49 -3z"/>
 <path d="M3047 6163 c-4 -3 -7 -19 -7 -34 0 -22 6 -30 26 -35 14 -4 30 -2 35 3 15 15 18 46 6 61 -10 13 -49 17 -60 5z"/>
 <path d="M3942 6018 c-21 -21 -14 -57 14 -70 31 -14 57 -1 62 31 7 42 -46 69 -76 39z"/>
 <path d="M3693 2898 c-31 -39 -17 -78 27 -78 19 0 33 7 40 21 22 41 -39 92 -67 57z"/>
 <path d="M5852 2628 c-19 -19 -14 -62 9 -76 28 -18 69 8 69 43 0 37 -52 59 -78 33z"/>
 <path d="M4090 1346 c-6 -8 -10 -25 -8 -38 2 -18 10 -24 35 -26 28 -3 33 1 39 23 11 45 -37 75 -66 41z"/>
 <path d="M3503 5774 c-3 -8 -1 -20 5 -26 16 -16 47 -5 50 20 3 18 -1 22 -23 22 -14 0 -28 -7 -32 -16z"/>
 <path d="M3566 4574 c-10 -27 -7 -42 11 -48 24 -10 46 21 32 45 -12 23 -35 25 -43 3z"/>
 <path d="M2800 5181 c-12 -23 -4 -48 19 -60 36 -18 71 24 49 59 -16 25 -54 26 -68 1z"/>
 <path d="M2561 4329 c-24 -23 -24 -24 -11 -50 6 -11 21 -19 35 -19 30 0 50 32 36 59 -16 28 -36 32 -60 10z"/>
 <path d="M4130 4660 c0 -11 7 -20 15 -20 8 0 15 9 15 20 0 11 -7 20 -15 20 -8 0 -15 -9 -15 -20z"/>
 <path d="M4410 3843 c-58 -22 -110 -94 -110 -153 0 -92 98 -182 182 -166 47 9 95 41 118 78 28 47 27 131 -2 175 -38 55 -130 88 -188 66z"/>
 <path d="M5127 3064 c-14 -15 -6 -34 14 -34 14 0 19 5 17 17 -3 18 -20 27 -31 17z"/>
 <path d="M4960 2790 c0 -15 5 -20 18 -18 9 2 17 10 17 18 0 8 -8 16 -17 18 -13 2 -18 -3 -18 -18z"/>
 <path d="M3812 4178 c-16 -16 -15 -33 4 -48 22 -19 54 12 38 37 -14 22 -27 26 -42 11z"/>
 <path d="M3275 3470 c-3 -5 -1 -10 4 -10 6 0 11 5 11 10 0 6 -2 10 -4 10 -3 0 -8 -4 -11 -10z"/>
 <path d="M2925 3254 c-20 -21 -16 -43 12 -61 19 -13 24 -12 42 6 13 13 18 27 14 38 -13 35 -42 42 -68 17z"/>
 <path d="M5658 629 c-11 -6 -18 -22 -18 -39 0 -23 5 -31 25 -36 47 -12 73 36 39 70 -18 19 -23 19 -46 5z"/>
 </g>

</svg>