<!DOCTYPE svg PUBLIC "-//W3C//DTD SVG 20010904//EN" "http://www.w3.org/TR/2001/REC-SVG-20010904/DTD/svg10.dtd">
<svg version="1.0" xmlns="http://www.w3.org/2000/svg" width="600px" height="450px" viewBox="0 0 6000 4500" preserveAspectRatio="xMidYMid meet">
<g id="layer1" fill="#f2f2f2" stroke="none">
 <path d="M1810 4464 c64 -103 98 -223 87 -306 -7 -49 -51 -99 -119 -134 -50 -26 -55 -35 -37 -81 25 -66 30 -124 13 -159 -40 -84 -253 -234 -354 -250 -34 -6 -40 -2 -170 128 -148 147 -249 220 -343 250 l-61 19 -55 -38 c-41 -29 -62 -53 -85 -98 -28 -54 -31 -69 -31 -150 0 -87 5 -115 46 -254 23 -75 15 -92 -29 -66 -42 25 -65 69 -58 110 6 32 4 35 -74 89 -104 73 -107 74 -121 40 -10 -27 -8 -31 25 -59 58 -48 42 -82 -21 -45 -19 11 -37 19 -40 17 -2 -2 -4 -21 -5 -42 -2 -44 19 -65 139 -141 74 -47 257 -134 282 -134 10 0 12 8 6 33 -14 53 -10 95 11 118 15 17 26 20 57 15 l39 -7 -3 65 c-2 36 -1 68 3 71 12 12 71 -41 176 -157 167 -186 321 -404 395 -558 31 -66 71 -216 92 -345 13 -81 55 -202 82 -237 37 -47 83 -76 288 -179 l170 -85 21 -53 c20 -49 21 -57 8 -105 -8 -28 -14 -56 -14 -62 0 -6 25 -42 55 -80 59 -73 123 -193 126 -234 5 -89 -7 -110 -41 -68 -18 22 -19 22 -47 6 -16 -9 -49 -24 -73 -32 -41 -14 -46 -14 -63 1 -20 19 -41 11 -61 -20 -12 -19 5 -75 35 -119 11 -14 19 -29 19 -32 0 -9 -223 -105 -410 -176 -82 -32 -194 -76 -225 -90 -33 -15 -174 -60 -265 -86 -136 -38 -260 -78 -260 -85 0 -4 44 -28 97 -54 l97 -47 64 17 c125 34 342 131 719 322 134 68 248 123 254 123 5 0 30 -13 54 -30 24 -16 47 -30 52 -30 18 1 53 40 53 59 0 12 6 21 15 21 8 0 21 15 29 33 15 36 57 76 117 110 21 12 39 28 39 34 0 7 22 24 49 37 l49 25 43 -33 c36 -29 46 -33 70 -24 41 14 56 35 41 58 -10 16 -3 27 54 82 36 35 73 79 83 98 9 21 25 36 37 38 20 3 19 -4 -28 -175 -60 -221 -100 -370 -144 -538 -19 -71 -55 -204 -80 -295 -25 -91 -55 -199 -66 -240 -10 -41 -30 -111 -44 -156 -13 -44 -24 -83 -24 -87 0 -4 776 -7 1725 -7 l1725 0 0 1765 0 1765 -29 0 c-32 0 -91 -43 -91 -65 0 -23 -21 -28 -35 -9 -7 11 -16 33 -20 51 -3 18 -10 35 -16 39 -19 11 -157 -143 -370 -412 -116 -147 -168 -239 -243 -426 -39 -100 -94 -297 -106 -380 -6 -40 -15 -89 -19 -108 -5 -19 -12 -47 -15 -61 -4 -17 -29 -43 -73 -76 -94 -70 -335 -232 -419 -281 -116 -69 -124 -77 -135 -157 -14 -101 -14 -101 -80 -125 -164 -62 -279 -151 -279 -217 0 -26 8 -43 34 -69 35 -35 63 -42 95 -22 15 9 24 6 55 -18 43 -34 46 -59 16 -134 -11 -28 -18 -56 -14 -61 8 -13 214 -165 319 -235 214 -144 637 -364 823 -429 73 -25 89 -37 70 -52 -18 -13 -145 -63 -162 -63 -23 0 -177 67 -321 140 -197 100 -480 281 -716 460 l-76 58 -29 -61 c-16 -33 -35 -62 -41 -64 -7 -3 -29 13 -48 34 -26 28 -34 44 -30 60 4 17 -3 30 -27 52 -31 27 -32 32 -30 91 3 61 2 62 -43 106 -33 34 -45 53 -45 75 0 43 -56 99 -99 99 -26 0 -35 6 -49 31 -9 18 -43 62 -75 98 -55 62 -58 69 -53 106 4 35 -1 48 -41 108 -37 56 -44 74 -39 99 9 46 37 98 52 98 7 0 26 -25 40 -55 15 -31 32 -54 37 -52 5 1 22 40 37 85 28 82 106 252 120 262 4 3 22 32 41 65 121 220 343 467 519 580 l70 45 0 88 c0 83 2 90 28 114 45 43 159 99 404 198 84 34 161 101 197 171 34 64 30 72 -54 109 -70 30 -129 63 -290 158 -134 80 -275 203 -275 240 0 8 7 26 14 40 40 73 112 359 115 458 1 23 -74 62 -174 90 -33 9 -70 20 -82 25 -13 5 -52 11 -87 15 -79 8 -95 16 -77 38 12 15 -64 16 -843 16 -513 0 -856 -4 -856 -9 0 -10 109 -197 140 -241 11 -15 62 -99 114 -186 99 -168 356 -593 471 -779 175 -284 160 -252 147 -309 -6 -28 -20 -82 -31 -121 -10 -38 -40 -151 -66 -250 -26 -99 -87 -328 -137 -510 -49 -181 -96 -355 -104 -385 -8 -30 -20 -60 -27 -67 -24 -23 -161 -113 -172 -113 -21 0 -194 137 -307 242 -61 57 -118 108 -125 113 -8 6 -23 53 -34 105 -11 52 -22 107 -25 122 -5 21 2 35 35 70 l40 44 -29 87 c-17 47 -27 93 -24 102 8 21 -55 148 -99 199 l-33 38 -44 -30 c-55 -37 -73 -33 -63 17 15 72 7 243 -14 301 l-19 55 -146 56 c-156 60 -218 92 -285 148 -58 48 -60 57 -10 82 174 89 391 320 484 516 64 134 64 144 7 228 -26 38 -73 123 -105 189 -98 198 -85 222 121 220 69 -1 137 -6 153 -12 21 -9 27 -9 27 2 0 21 -22 34 -65 38 l-40 3 30 17 c29 17 21 17 -213 18 l-244 0 22 -36z m745 -2874 c56 -27 111 -61 124 -74 21 -22 22 -27 9 -53 -15 -33 -72 -64 -123 -66 -33 -2 -35 -4 -30 -28 5 -22 0 -30 -36 -54 -34 -22 -48 -26 -68 -19 -26 9 -26 10 -32 159 -3 83 -7 155 -9 160 -13 50 25 44 165 -25z"/>
 <path d="M4767 4468 c-47 -104 -52 -189 -14 -264 27 -52 70 -102 113 -130 23 -15 25 -22 20 -55 -3 -20 -15 -58 -26 -83 l-19 -46 47 -35 c43 -31 265 -136 391 -185 l54 -21 51 52 c77 78 214 164 326 204 25 9 86 19 137 22 l91 6 31 -59 30 -59 1 343 0 342 -609 0 -609 0 -15 -32z"/>
 <path d="M4210 2184 c-25 -15 -61 -42 -81 -61 -34 -32 -37 -40 -42 -106 -7 -87 -22 -142 -47 -167 -10 -10 -43 -23 -73 -30 -72 -15 -133 -59 -158 -115 l-19 -44 37 -52 c21 -28 55 -71 75 -95 34 -40 36 -46 26 -76 -20 -65 -20 -73 1 -92 12 -11 23 -17 24 -15 2 2 26 52 55 110 50 105 165 292 308 503 69 101 74 111 58 123 -10 7 -33 13 -51 13 -40 0 -53 21 -53 84 0 25 -3 46 -7 46 -5 0 -28 -12 -53 -26z"/>
 </g>
<g id="layer2" fill="#080808" stroke="none">
 <path d="M0 2250 l0 -2250 1273 0 1274 0 31 107 c17 60 38 133 46 163 8 30 35 129 60 220 25 91 61 224 80 295 44 168 84 317 144 538 47 171 48 178 28 175 -12 -2 -28 -17 -37 -38 -10 -19 -47 -63 -83 -98 -57 -55 -64 -66 -54 -82 15 -23 0 -44 -41 -58 -24 -9 -34 -5 -70 24 l-43 33 -49 -25 c-27 -13 -49 -30 -49 -37 0 -6 -18 -22 -39 -34 -60 -34 -102 -74 -117 -110 -8 -18 -21 -33 -29 -33 -9 0 -15 -9 -15 -21 0 -19 -35 -58 -53 -59 -5 0 -28 14 -52 30 -24 17 -49 30 -54 30 -6 0 -120 -55 -254 -123 -377 -191 -594 -288 -719 -322 l-64 -17 -97 47 c-53 26 -97 50 -97 54 0 7 124 47 260 85 91 26 232 71 265 86 31 14 143 58 225 90 187 71 410 167 410 176 0 3 -8 18 -19 32 -30 44 -47 100 -35 119 20 31 41 39 61 20 17 -15 22 -15 63 -1 24 8 57 23 73 32 28 16 29 16 47 -5 34 -43 46 -22 41 67 -3 41 -67 161 -126 234 -30 38 -55 74 -55 80 0 6 6 34 14 62 13 48 12 56 -8 105 l-21 53 -170 85 c-205 103 -251 132 -288 179 -27 35 -69 156 -82 237 -21 129 -61 279 -92 345 -74 154 -228 372 -395 558 -105 116 -164 169 -176 157 -4 -3 -5 -35 -3 -71 l3 -65 -39 7 c-65 10 -91 -41 -68 -133 6 -25 4 -33 -6 -33 -25 0 -208 87 -282 134 -120 76 -141 97 -139 141 1 21 3 40 5 42 3 2 21 -6 40 -17 63 -37 79 -3 21 45 -33 28 -35 32 -25 59 14 34 17 33 121 -40 78 -54 80 -57 74 -89 -7 -41 16 -85 58 -110 44 -26 52 -9 29 66 -41 139 -46 167 -46 254 0 81 3 96 31 150 23 45 44 69 85 98 l55 38 61 -19 c94 -30 195 -103 343 -250 130 -130 136 -134 170 -128 101 16 314 166 354 250 17 35 12 93 -13 159 -18 46 -13 55 37 81 68 35 112 85 119 134 11 83 -23 203 -87 306 l-22 36 -894 0 -894 0 0 -2250z"/>
 <path d="M2245 4482 l-30 -17 40 -3 c43 -4 65 -17 65 -38 0 -11 -6 -11 -27 -2 -16 6 -84 11 -153 12 -206 2 -219 -22 -121 -220 32 -66 79 -151 105 -189 57 -84 57 -94 -7 -228 -93 -196 -310 -427 -484 -516 -50 -25 -48 -34 10 -82 67 -56 129 -88 285 -148 l146 -56 19 -55 c21 -58 29 -229 14 -301 -10 -50 8 -54 63 -17 l44 30 33 -38 c44 -51 107 -178 99 -199 -3 -9 7 -55 24 -102 l29 -87 -40 -44 c-33 -35 -40 -49 -35 -70 3 -15 14 -70 25 -122 11 -52 26 -99 34 -105 7 -5 64 -56 125 -113 113 -105 286 -242 307 -242 11 0 148 90 172 113 7 7 19 37 27 67 8 30 55 204 104 385 50 182 111 411 137 510 26 99 56 212 66 250 11 39 25 93 31 121 13 57 28 25 -147 309 -115 186 -372 611 -471 779 -52 87 -103 171 -114 186 -31 44 -140 231 -140 241 0 5 -46 9 -102 9 -78 -1 -110 -5 -133 -18z"/>
 <path d="M4179 4484 c-18 -22 -2 -30 77 -38 35 -4 74 -10 87 -15 12 -5 49 -16 82 -25 100 -28 175 -67 174 -90 -3 -99 -75 -385 -115 -458 -7 -14 -14 -32 -14 -40 0 -37 141 -160 275 -240 161 -95 220 -128 290 -158 84 -37 88 -45 54 -109 -36 -70 -113 -137 -197 -171 -245 -99 -359 -155 -404 -198 -26 -24 -28 -31 -28 -114 l0 -88 -70 -45 c-176 -113 -398 -360 -519 -580 -19 -33 -37 -62 -41 -65 -14 -10 -92 -180 -120 -262 -15 -45 -32 -84 -37 -85 -5 -2 -22 21 -37 52 -14 30 -33 55 -40 55 -15 0 -43 -52 -52 -98 -5 -25 2 -43 39 -99 40 -60 45 -73 41 -108 -5 -37 -2 -44 53 -106 32 -36 66 -80 75 -98 14 -25 23 -31 49 -31 43 0 99 -56 99 -99 0 -22 12 -41 45 -75 45 -44 46 -45 43 -106 -2 -59 -1 -64 30 -91 24 -22 31 -35 27 -52 -4 -16 4 -32 30 -60 19 -21 41 -37 48 -34 6 2 25 31 41 64 l29 61 76 -58 c236 -179 519 -360 716 -460 144 -73 298 -140 321 -140 17 0 144 50 162 63 19 15 3 27 -70 52 -186 65 -609 285 -823 429 -105 70 -311 222 -319 235 -4 5 3 33 14 61 30 75 27 100 -16 134 -31 24 -40 27 -55 18 -32 -20 -60 -13 -95 22 -26 26 -34 43 -34 69 0 66 115 155 279 217 66 24 66 24 80 125 11 80 19 88 135 157 84 49 325 211 419 281 44 33 69 59 73 76 3 14 10 42 15 61 4 19 13 68 19 108 12 83 67 280 106 380 75 187 127 279 243 426 213 269 351 423 370 412 6 -4 13 -21 16 -39 4 -18 13 -40 20 -51 14 -19 35 -14 35 9 0 22 59 65 91 65 l29 0 0 140 c0 137 -1 142 -31 202 l-31 61 -91 -6 c-51 -3 -112 -13 -137 -22 -112 -40 -249 -126 -326 -204 l-51 -52 -54 21 c-126 49 -348 154 -391 185 l-47 35 19 46 c11 25 23 63 26 83 5 33 3 40 -20 55 -79 51 -137 149 -138 231 -1 50 25 150 43 170 5 5 9 13 9 17 0 4 -132 8 -294 8 -255 0 -295 -2 -307 -16z m91 -2320 c0 -63 13 -84 53 -84 18 0 41 -6 51 -13 16 -12 11 -22 -58 -123 -143 -211 -258 -398 -308 -503 -29 -58 -53 -108 -55 -110 -1 -2 -12 4 -24 15 -21 19 -21 27 -1 92 10 30 8 36 -26 76 -20 24 -54 67 -75 95 l-37 52 19 44 c25 56 86 100 158 115 30 7 63 20 73 30 25 25 40 80 47 167 5 66 8 74 42 106 34 32 117 87 134 87 4 0 7 -21 7 -46z"/>
 <path d="M2389 1639 c-1 -8 0 -18 1 -24 2 -5 6 -77 9 -160 6 -149 6 -150 32 -159 20 -7 34 -3 68 19 36 24 41 32 36 54 -5 24 -3 26 30 28 51 2 108 33 123 66 13 26 12 31 -9 53 -26 28 -210 121 -257 130 -23 5 -32 3 -33 -7z"/>
 </g>

</svg>