<!DOCTYPE svg PUBLIC "-//W3C//DTD SVG 20010904//EN" "http://www.w3.org/TR/2001/REC-SVG-20010904/DTD/svg10.dtd">
<svg version="1.0" xmlns="http://www.w3.org/2000/svg" width="458px" height="305px" viewBox="0 0 4580 3050" preserveAspectRatio="xMidYMid meet">
<g id="layer1" fill="#a1050d" stroke="none">
 <path d="M4318 3018 c-9 -18 -20 -53 -23 -78 -9 -62 -22 -96 -67 -162 -36 -54 -45 -60 -195 -137 -87 -45 -226 -121 -309 -169 -84 -48 -180 -100 -215 -116 -35 -16 -70 -32 -78 -35 -22 -11 -185 -311 -175 -321 9 -9 428 114 452 132 6 6 12 22 12 37 0 14 4 32 8 39 5 6 60 23 123 36 186 39 185 39 186 19 0 -10 6 -42 12 -72 16 -76 14 -118 -5 -125 -29 -11 -34 -6 -35 37 -2 93 -40 170 -69 141 -8 -8 -7 -32 4 -87 24 -114 27 -108 -67 -144 -89 -34 -89 -34 -122 21 -9 15 -36 8 -260 -68 -137 -46 -264 -89 -281 -95 -23 -9 -51 -42 -110 -127 -43 -63 -83 -121 -89 -129 -19 -28 6 -27 87 5 134 52 199 77 270 104 l67 25 105 -85 c213 -170 295 -263 357 -401 42 -92 84 -263 100 -403 13 -124 14 -121 -52 -342 l-19 -66 -88 31 c-81 29 -96 31 -227 31 -131 1 -154 -2 -350 -46 -115 -26 -327 -77 -470 -114 -256 -66 -262 -67 -390 -67 -94 0 -144 4 -180 16 -27 9 -53 13 -57 9 -4 -4 4 -40 18 -80 32 -93 24 -151 -29 -209 l-20 -23 1221 0 1222 0 0 1049 0 1050 -107 -5 c-375 -14 -361 -14 -356 6 3 11 -2 54 -12 95 -13 60 -21 78 -38 85 -16 6 -17 9 -6 9 20 1 87 31 289 129 105 51 167 75 193 76 l37 1 0 277 0 278 -123 0 -122 0 -17 -32z"/>
 <path d="M1213 291 c-255 -43 -492 -86 -527 -95 -40 -11 -87 -34 -123 -60 -32 -23 -71 -48 -88 -54 -16 -7 -55 -28 -85 -47 l-55 -35 727 0 727 0 -19 43 c-11 24 -22 63 -26 87 -4 25 -18 61 -31 80 -30 45 -29 64 3 78 21 10 25 18 22 45 -3 28 -7 32 -33 34 -16 1 -238 -34 -492 -76z"/>
 </g>
<g id="layer2" fill="#fdfcfc" stroke="none">
 <path d="M2705 2963 c-7 -78 -12 -95 -49 -156 -46 -78 -56 -84 -301 -192 -193 -85 -301 -143 -387 -207 -83 -63 -107 -95 -133 -174 -33 -102 8 -182 244 -474 l101 -125 -127 -42 c-144 -47 -165 -50 -184 -27 -18 22 -126 10 -196 -21 -51 -23 -90 -65 -79 -84 9 -14 -3 -19 -218 -101 -287 -108 -427 -131 -558 -90 -34 11 -66 20 -70 20 -5 0 -8 -15 -8 -32 1 -56 20 -121 46 -155 33 -44 77 -44 192 1 48 18 212 75 364 125 l277 91 27 -25 c24 -22 36 -25 79 -23 48 2 55 -1 138 -60 143 -104 144 -120 10 -250 -53 -52 -121 -112 -151 -135 -69 -51 -216 -124 -358 -177 -60 -23 -257 -98 -439 -166 l-330 -125 -105 10 c-58 6 -120 16 -138 23 -28 11 -34 10 -42 -2 -5 -8 -10 -19 -10 -23 0 -17 59 -67 79 -67 24 0 51 -36 51 -69 0 -34 -64 -145 -97 -167 -16 -10 -48 -28 -73 -41 l-45 -23 68 0 c59 0 79 5 147 39 44 21 103 56 132 77 29 21 79 46 111 56 47 14 998 178 1036 178 21 0 11 -38 -14 -54 -31 -20 -32 -42 -2 -86 13 -19 27 -55 31 -80 4 -24 15 -63 26 -87 l19 -43 194 0 c188 0 194 1 214 22 53 58 61 117 30 206 l-24 69 46 -15 c32 -11 86 -15 176 -15 128 0 134 1 390 67 143 37 355 88 470 114 196 44 219 47 350 46 131 0 145 -2 229 -32 49 -17 92 -29 96 -27 4 3 27 73 50 157 l43 153 -12 115 c-16 140 -58 311 -100 403 -62 137 -155 243 -368 415 -56 45 -110 82 -120 82 -10 0 -65 -18 -123 -41 -58 -22 -116 -44 -130 -49 -14 -5 -52 -19 -86 -33 l-61 -24 80 114 c50 71 90 119 106 125 14 6 136 48 271 93 223 76 246 82 257 67 42 -58 30 -56 126 -19 48 19 93 39 99 45 10 10 1 100 -18 170 -4 12 -2 22 4 22 11 0 30 -78 34 -145 3 -45 17 -52 63 -35 l28 11 -6 73 c-4 40 -11 85 -17 100 -6 16 -6 26 0 26 11 0 28 -61 38 -137 l7 -58 165 3 c91 1 198 5 238 9 l72 5 0 214 c0 273 20 261 -234 139 -246 -118 -260 -123 -444 -160 -97 -20 -181 -40 -185 -44 -5 -5 -11 -27 -14 -49 -5 -39 -7 -40 -62 -56 -31 -9 -127 -38 -214 -65 l-158 -49 37 66 c20 37 57 104 82 150 25 45 52 82 59 82 19 0 132 58 286 147 72 42 206 115 297 162 145 76 169 92 202 136 51 67 74 119 83 185 4 30 14 64 21 75 8 11 14 23 14 27 0 5 -70 8 -155 8 -133 0 -155 -2 -155 -15 0 -24 -37 -90 -72 -130 -35 -40 -90 -72 -158 -91 -25 -6 -126 -44 -225 -84 -99 -39 -227 -89 -284 -111 -172 -66 -134 -31 -446 -414 -243 -298 -218 -272 -251 -255 -49 26 -140 117 -193 194 -28 41 -51 76 -51 79 0 6 167 149 297 255 103 82 116 90 146 85 43 -7 124 27 163 68 26 27 29 37 29 97 0 53 -7 80 -29 127 -19 38 -32 83 -35 125 l-6 65 -107 3 -106 3 -7 -88z m-427 -1453 c7 -12 9 -26 5 -33 -21 -34 -116 -147 -123 -147 -14 0 -201 93 -196 97 5 6 279 102 291 102 6 1 16 -8 23 -19z"/>
 <path d="M25 285 c-35 -34 -35 -106 0 -140 54 -55 155 -9 155 70 0 79 -101 125 -155 70z"/>
 </g>
<g id="layer3" fill="#0b0fba" stroke="none">
 <path d="M0 1645 l0 -1404 25 24 c50 51 135 20 135 -50 0 -70 -85 -101 -135 -50 l-25 24 0 -94 0 -95 114 0 c124 0 176 13 232 55 37 29 104 140 104 174 0 43 -28 80 -70 91 -36 10 -70 44 -56 57 3 4 18 1 32 -6 15 -6 74 -16 133 -22 l106 -10 330 125 c182 68 379 143 439 166 144 54 289 127 362 180 32 24 105 89 162 145 141 141 140 159 -21 273 -93 66 -99 69 -143 64 -39 -4 -49 -1 -73 22 l-28 27 -279 -92 c-154 -50 -319 -107 -367 -125 -147 -58 -184 -47 -207 59 -19 88 -19 88 51 66 128 -40 270 -16 554 91 227 86 249 96 241 116 -3 9 -2 23 4 33 24 46 221 91 249 57 7 -9 21 -16 30 -16 26 0 295 87 298 96 2 5 -43 65 -98 134 -168 208 -225 293 -244 363 -16 61 -16 64 4 122 38 110 145 190 422 316 353 159 340 152 407 265 24 41 31 67 37 137 l7 87 -1366 0 -1366 0 0 -1405z"/>
 <path d="M2911 2983 c3 -43 16 -90 33 -126 33 -68 44 -159 24 -197 -20 -38 -114 -83 -161 -77 -35 5 -45 -1 -150 -85 -125 -101 -304 -256 -313 -269 -7 -12 84 -142 140 -201 25 -26 66 -61 92 -79 55 -38 59 -36 124 43 312 383 446 540 469 552 15 8 75 33 132 55 57 22 185 72 284 111 99 40 200 78 225 84 101 29 183 95 229 185 40 77 88 71 -557 71 l-578 0 7 -67z"/>
 <path d="M2096 1496 c-83 -29 -151 -57 -153 -63 -2 -5 3 -15 10 -21 27 -23 200 -103 212 -98 11 4 119 132 139 164 9 14 -29 72 -47 71 -7 0 -79 -24 -161 -53z"/>
 </g>

</svg>